<?xml version="1.0" encoding="utf-8"?>
<!-- Generated by IcoMoon.io -->
<!DOCTYPE svg PUBLIC "-//W3C//DTD SVG 1.1//EN" "http://www.w3.org/Graphics/SVG/1.1/DTD/svg11.dtd">
<svg version="1.1" xmlns="http://www.w3.org/2000/svg" xmlns:xlink="http://www.w3.org/1999/xlink" width="48" height="48" viewBox="0 0 48 48">
<path fill="#444444" d="M36.758 4.090h-25.75c-4.472 0-8.112 3.638-8.112 8.112v25.752c0 4.472 3.638 8.112 8.112 8.112h25.752c4.472 0 8.112-3.638 8.112-8.112v-25.752c0-4.472-3.638-8.11-8.112-8.11zM39.084 8.928l0.928-0.004v7.114l-7.090 0.022-0.024-7.114 6.188-0.020zM17.89 20.768c1.344-1.86 3.526-3.080 5.99-3.080s4.646 1.22 5.99 3.080c0.874 1.214 1.398 2.7 1.398 4.308 0 4.074-3.318 7.388-7.388 7.388-4.074 0-7.388-3.314-7.388-7.388 0-1.608 0.524-3.094 1.398-4.308zM40.778 37.952c0 2.22-1.804 4.022-4.022 4.022h-25.75c-2.218 0-4.022-1.802-4.022-4.022v-17.184h6.266c-0.542 1.33-0.844 2.784-0.844 4.308 0 6.328 5.148 11.478 11.478 11.478s11.476-5.152 11.476-11.478c0-1.524-0.306-2.976-0.846-4.308h6.268v17.184z"></path>
</svg>
