<svg xmlns="http://www.w3.org/2000/svg" xmlns:xlink="http://www.w3.org/1999/xlink" width="48" height="792" viewBox="0 0 48 792"><svg width="24" height="24" viewBox="0 0 24 24" id="account_circle-grey-24" y="0"><path d="M12 2C6.48 2 2 6.48 2 12s4.48 10 10 10 10-4.48 10-10S17.52 2 12 2zm0 3c1.66 0 3 1.34 3 3s-1.34 3-3 3-3-1.34-3-3 1.34-3 3-3zm0 14.2c-2.5 0-4.71-1.28-6-3.22.03-1.99 4-3.08 6-3.08 1.99 0 5.97 1.09 6 3.08-1.29 1.94-3.5 3.22-6 3.22z" fill="#8b8b8b"/></svg>
<svg width="48" height="48" viewBox="0 0 48 48" id="account_circle-grey-48" y="24"><path d="M24 4C12.95 4 4 12.95 4 24s8.95 20 20 20 20-8.95 20-20S35.05 4 24 4zm0 6c3.31 0 6 2.69 6 6 0 3.32-2.69 6-6 6s-6-2.68-6-6c0-3.31 2.69-6 6-6zm0 28.4c-5.01 0-9.41-2.56-12-6.44.05-3.97 8.01-6.16 12-6.16s11.94 2.19 12 6.16c-2.59 3.88-6.99 6.44-12 6.44z" fill="#8b8b8b"/></svg>
<svg width="24" height="24" viewBox="0 0 24 24" id="add-grey-24" y="72"><path d="M19 13h-6v6h-2v-6H5v-2h6V5h2v6h6v2z" fill="#8b8b8b"/></svg>
<svg width="48" height="48" viewBox="0 0 48 48" id="add-grey-48" y="96"><path d="M38 26H26v12h-4V26H10v-4h12V10h4v12h12v4z" fill="#8b8b8b"/></svg>
<svg width="24" height="24" viewBox="0 0 24 24" id="close-grey-24" y="144"><path d="M19 6.41L17.59 5 12 10.59 6.41 5 5 6.41 10.59 12 5 17.59 6.41 19 12 13.41 17.59 19 19 17.59 13.41 12z" fill="#8b8b8b"/></svg>
<svg width="48" height="48" viewBox="0 0 48 48" id="close-grey-48" y="168"><path d="M38 12.83L35.17 10 24 21.17 12.83 10 10 12.83 21.17 24 10 35.17 12.83 38 24 26.83 35.17 38 38 35.17 26.83 24z" fill="#8b8b8b"/></svg>
<svg width="24" height="24" viewBox="0 0 24 24" id="fullscreen-grey-24" y="216"><path d="M7 14H5v5h5v-2H7v-3zm-2-4h2V7h3V5H5v5zm12 7h-3v2h5v-5h-2v3zM14 5v2h3v3h2V5h-5z" fill="#8b8b8b"/></svg>
<svg width="48" height="48" viewBox="0 0 48 48" id="fullscreen-grey-48" y="240"><path d="M14 28h-4v10h10v-4h-6v-6zm-4-8h4v-6h6v-4H10v10zm24 14h-6v4h10V28h-4v6zm-6-24v4h6v6h4V10H28z" fill="#8b8b8b"/></svg>
<svg width="24" height="24" viewBox="0 0 24 24" id="local_shipping-grey-24" y="288"><path d="M20 8h-3V4H3c-1.1 0-2 .9-2 2v11h2c0 1.66 1.34 3 3 3s3-1.34 3-3h6c0 1.66 1.34 3 3 3s3-1.34 3-3h2v-5l-3-4zM6 18.5c-.83 0-1.5-.67-1.5-1.5s.67-1.5 1.5-1.5 1.5.67 1.5 1.5-.67 1.5-1.5 1.5zm13.5-9l1.96 2.5H17V9.5h2.5zm-1.5 9c-.83 0-1.5-.67-1.5-1.5s.67-1.5 1.5-1.5 1.5.67 1.5 1.5-.67 1.5-1.5 1.5z" fill="#8b8b8b"/></svg>
<svg width="48" height="48" viewBox="0 0 48 48" id="local_shipping-grey-48" y="312"><path d="M40 16h-6V8H6c-2.21 0-4 1.79-4 4v22h4c0 3.31 2.69 6 6 6s6-2.69 6-6h12c0 3.31 2.69 6 6 6s6-2.69 6-6h4V24l-6-8zM12 37c-1.66 0-3-1.34-3-3s1.34-3 3-3 3 1.34 3 3-1.34 3-3 3zm27-18l3.93 5H34v-5h5zm-3 18c-1.66 0-3-1.34-3-3s1.34-3 3-3 3 1.34 3 3-1.34 3-3 3z" fill="#8b8b8b"/></svg>
<svg width="24" height="24" viewBox="0 0 24 24" id="lock-grey-24" y="360"><path d="M18 8h-1V6c0-2.76-2.24-5-5-5S7 3.24 7 6v2H6c-1.1 0-2 .9-2 2v10c0 1.1.9 2 2 2h12c1.1 0 2-.9 2-2V10c0-1.1-.9-2-2-2zm-6 9c-1.1 0-2-.9-2-2s.9-2 2-2 2 .9 2 2-.9 2-2 2zm3.1-9H8.9V6c0-1.71 1.39-3.1 3.1-3.1 1.71 0 3.1 1.39 3.1 3.1v2z" fill="#8b8b8b"/></svg>
<svg width="48" height="48" viewBox="0 0 48 48" id="lock-grey-48" y="384"><path d="M36 16h-2v-4c0-5.52-4.48-10-10-10S14 6.48 14 12v4h-2c-2.21 0-4 1.79-4 4v20c0 2.21 1.79 4 4 4h24c2.21 0 4-1.79 4-4V20c0-2.21-1.79-4-4-4zM24 34c-2.21 0-4-1.79-4-4s1.79-4 4-4 4 1.79 4 4-1.79 4-4 4zm6.2-18H17.8v-4c0-3.42 2.78-6.2 6.2-6.2 3.42 0 6.2 2.78 6.2 6.2v4z" fill="#8b8b8b"/></svg>
<svg width="24" height="24" viewBox="0 0 24 24" id="menu-grey-24" y="432"><path d="M3 18h18v-2H3v2zm0-5h18v-2H3v2zm0-7v2h18V6H3z" fill="#8b8b8b"/></svg>
<svg width="48" height="48" viewBox="0 0 48 48" id="menu-grey-48" y="456"><path d="M6 36h36v-4H6v4zm0-10h36v-4H6v4zm0-14v4h36v-4H6z" fill="#8b8b8b"/></svg>
<svg width="24" height="24" viewBox="0 0 24 24" id="place-grey-24" y="504"><path d="M12 2C8.13 2 5 5.13 5 9c0 5.25 7 13 7 13s7-7.75 7-13c0-3.87-3.13-7-7-7zm0 9.5c-1.38 0-2.5-1.12-2.5-2.5s1.12-2.5 2.5-2.5 2.5 1.12 2.5 2.5-1.12 2.5-2.5 2.5z" fill="#8b8b8b"/></svg>
<svg width="48" height="48" viewBox="0 0 48 48" id="place-grey-48" y="528"><path d="M24 4c-7.73 0-14 6.27-14 14 0 10.5 14 26 14 26s14-15.5 14-26c0-7.73-6.27-14-14-14zm0 19c-2.76 0-5-2.24-5-5s2.24-5 5-5 5 2.24 5 5-2.24 5-5 5z" fill="#8b8b8b"/></svg>
<svg width="24" height="24" viewBox="0 0 24 24" id="remove-grey-24" y="576"><path d="M19 13H5v-2h14v2z" fill="#8b8b8b"/></svg>
<svg width="48" height="48" viewBox="0 0 48 48" id="remove-grey-48" y="600"><path d="M38 26H10v-4h28v4z" fill="#8b8b8b"/></svg>
<svg width="24" height="24" viewBox="0 0 24 24" id="shopping_basket-grey-24" y="648"><path d="M17.21 9l-4.38-6.56c-.19-.28-.51-.42-.83-.42-.32 0-.64.14-.83.43L6.79 9H2c-.55 0-1 .45-1 1 0 .09.01.18.04.27l2.54 9.27c.23.84 1 1.46 1.92 1.46h13c.92 0 1.69-.62 1.93-1.46l2.54-9.27L23 10c0-.55-.45-1-1-1h-4.79zM9 9l3-4.4L15 9H9zm3 8c-1.1 0-2-.9-2-2s.9-2 2-2 2 .9 2 2-.9 2-2 2z" fill="#8b8b8b"/></svg>
<svg width="48" height="48" viewBox="0 0 48 48" id="shopping_basket-grey-48" y="672"><path d="M34.42 18L25.66 4.89c-.38-.58-1.02-.85-1.66-.85-.64 0-1.28.28-1.66.85L13.58 18H4c-1.1 0-2 .9-2 2 0 .19.03.37.07.54l5.07 18.54C7.61 40.76 9.16 42 11 42h26c1.84 0 3.39-1.24 3.85-2.93l5.07-18.54c.05-.16.08-.34.08-.53 0-1.1-.9-2-2-2h-9.58zM18 18l6-8.8 6 8.8H18zm6 16c-2.21 0-4-1.79-4-4s1.79-4 4-4 4 1.79 4 4-1.79 4-4 4z" fill="#8b8b8b"/></svg>
<svg width="24" height="24" viewBox="0 0 24 24" id="store_mall_directory-grey-24" y="720"><path d="M20 4H4v2h16V4zm1 10v-2l-1-5H4l-1 5v2h1v6h10v-6h4v6h2v-6h1zm-9 4H6v-4h6v4z" fill="#8b8b8b"/></svg>
<svg width="48" height="48" viewBox="0 0 48 48" id="store_mall_directory-grey-48" y="744"><path d="M40 8H8v4h32V8zm2 20v-4l-2-10H8L6 24v4h2v12h20V28h8v12h4V28h2zm-18 8H12v-8h12v8z" fill="#8b8b8b"/></svg>
</svg>