<svg xmlns="http://www.w3.org/2000/svg" xmlns:xlink="http://www.w3.org/1999/xlink" width="48" height="720" viewBox="0 0 48 720"><svg width="24" height="24" viewBox="0 0 24 24" id="business-grey-24" y="0"><path d="M12 7V3H2v18h20V7H12zM6 19H4v-2h2v2zm0-4H4v-2h2v2zm0-4H4V9h2v2zm0-4H4V5h2v2zm4 12H8v-2h2v2zm0-4H8v-2h2v2zm0-4H8V9h2v2zm0-4H8V5h2v2zm10 12h-8v-2h2v-2h-2v-2h2v-2h-2V9h8v10zm-2-8h-2v2h2v-2zm0 4h-2v2h2v-2z" fill="#797979"/></svg>
<svg width="48" height="48" viewBox="0 0 48 48" id="business-grey-48" y="24"><path d="M24 14V6H4v36h40V14H24zM12 38H8v-4h4v4zm0-8H8v-4h4v4zm0-8H8v-4h4v4zm0-8H8v-4h4v4zm8 24h-4v-4h4v4zm0-8h-4v-4h4v4zm0-8h-4v-4h4v4zm0-8h-4v-4h4v4zm20 24H24v-4h4v-4h-4v-4h4v-4h-4v-4h16v20zm-4-16h-4v4h4v-4zm0 8h-4v4h4v-4z" fill="#797979"/></svg>
<svg width="24" height="24" viewBox="0 0 24 24" id="business-white-24" y="72"><path d="M12 7V3H2v18h20V7H12zM6 19H4v-2h2v2zm0-4H4v-2h2v2zm0-4H4V9h2v2zm0-4H4V5h2v2zm4 12H8v-2h2v2zm0-4H8v-2h2v2zm0-4H8V9h2v2zm0-4H8V5h2v2zm10 12h-8v-2h2v-2h-2v-2h2v-2h-2V9h8v10zm-2-8h-2v2h2v-2zm0 4h-2v2h2v-2z" fill="#fff"/></svg>
<svg width="48" height="48" viewBox="0 0 48 48" id="business-white-48" y="96"><path d="M24 14V6H4v36h40V14H24zM12 38H8v-4h4v4zm0-8H8v-4h4v4zm0-8H8v-4h4v4zm0-8H8v-4h4v4zm8 24h-4v-4h4v4zm0-8h-4v-4h4v4zm0-8h-4v-4h4v4zm0-8h-4v-4h4v4zm20 24H24v-4h4v-4h-4v-4h4v-4h-4v-4h16v20zm-4-16h-4v4h4v-4zm0 8h-4v4h4v-4z" fill="#fff"/></svg>
<svg width="24" height="24" viewBox="0 0 24 24" id="mail-grey-24" y="144"><path d="M20 4H4c-1.1 0-1.99.9-1.99 2L2 18c0 1.1.9 2 2 2h16c1.1 0 2-.9 2-2V6c0-1.1-.9-2-2-2zm0 4l-8 5-8-5V6l8 5 8-5v2z" fill="#797979"/></svg>
<svg width="48" height="48" viewBox="0 0 48 48" id="mail-grey-48" y="168"><path d="M40 8H8c-2.21 0-3.98 1.79-3.98 4L4 36c0 2.21 1.79 4 4 4h32c2.21 0 4-1.79 4-4V12c0-2.21-1.79-4-4-4zm0 8L24 26 8 16v-4l16 10 16-10v4z" fill="#797979"/></svg>
<svg width="24" height="24" viewBox="0 0 24 24" id="mail-white-24" y="216"><path d="M20 4H4c-1.1 0-1.99.9-1.99 2L2 18c0 1.1.9 2 2 2h16c1.1 0 2-.9 2-2V6c0-1.1-.9-2-2-2zm0 4l-8 5-8-5V6l8 5 8-5v2z" fill="#fff"/></svg>
<svg width="48" height="48" viewBox="0 0 48 48" id="mail-white-48" y="240"><path d="M40 8H8c-2.21 0-3.98 1.79-3.98 4L4 36c0 2.21 1.79 4 4 4h32c2.21 0 4-1.79 4-4V12c0-2.21-1.79-4-4-4zm0 8L24 26 8 16v-4l16 10 16-10v4z" fill="#fff"/></svg>
<svg width="24" height="24" viewBox="0 0 24 24" id="menu-grey-24" y="288"><path d="M3 18h18v-2H3v2zm0-5h18v-2H3v2zm0-7v2h18V6H3z" fill="#797979"/></svg>
<svg width="48" height="48" viewBox="0 0 48 48" id="menu-grey-48" y="312"><path d="M6 36h36v-4H6v4zm0-10h36v-4H6v4zm0-14v4h36v-4H6z" fill="#797979"/></svg>
<svg width="24" height="24" viewBox="0 0 24 24" id="menu-white-24" y="360"><path d="M3 18h18v-2H3v2zm0-5h18v-2H3v2zm0-7v2h18V6H3z" fill="#fff"/></svg>
<svg width="48" height="48" viewBox="0 0 48 48" id="menu-white-48" y="384"><path d="M6 36h36v-4H6v4zm0-10h36v-4H6v4zm0-14v4h36v-4H6z" fill="#fff"/></svg>
<svg width="24" height="24" viewBox="0 0 24 24" id="search-grey-24" y="432"><path d="M15.5 14h-.79l-.28-.27C15.41 12.59 16 11.11 16 9.5 16 5.91 13.09 3 9.5 3S3 5.91 3 9.5 5.91 16 9.5 16c1.61 0 3.09-.59 4.23-1.57l.27.28v.79l5 4.99L20.49 19l-4.99-5zm-6 0C7.01 14 5 11.99 5 9.5S7.01 5 9.5 5 14 7.01 14 9.5 11.99 14 9.5 14z" fill="#797979"/></svg>
<svg width="48" height="48" viewBox="0 0 48 48" id="search-grey-48" y="456"><path d="M31 28h-1.59l-.55-.55C30.82 25.18 32 22.23 32 19c0-7.18-5.82-13-13-13S6 11.82 6 19s5.82 13 13 13c3.23 0 6.18-1.18 8.45-3.13l.55.55V31l10 9.98L40.98 38 31 28zm-12 0c-4.97 0-9-4.03-9-9s4.03-9 9-9 9 4.03 9 9-4.03 9-9 9z" fill="#797979"/></svg>
<svg width="24" height="24" viewBox="0 0 24 24" id="search-white-24" y="504"><path d="M15.5 14h-.79l-.28-.27C15.41 12.59 16 11.11 16 9.5 16 5.91 13.09 3 9.5 3S3 5.91 3 9.5 5.91 16 9.5 16c1.61 0 3.09-.59 4.23-1.57l.27.28v.79l5 4.99L20.49 19l-4.99-5zm-6 0C7.01 14 5 11.99 5 9.5S7.01 5 9.5 5 14 7.01 14 9.5 11.99 14 9.5 14z" fill="#fff"/></svg>
<svg width="48" height="48" viewBox="0 0 48 48" id="search-white-48" y="528"><path d="M31 28h-1.59l-.55-.55C30.82 25.18 32 22.23 32 19c0-7.18-5.82-13-13-13S6 11.82 6 19s5.82 13 13 13c3.23 0 6.18-1.18 8.45-3.13l.55.55V31l10 9.98L40.98 38 31 28zm-12 0c-4.97 0-9-4.03-9-9s4.03-9 9-9 9 4.03 9 9-4.03 9-9 9z" fill="#fff"/></svg>
<svg width="24" height="24" viewBox="0 0 24 24" id="sort-grey-24" y="576"><path d="M3 18h6v-2H3v2zM3 6v2h18V6H3zm0 7h12v-2H3v2z" fill="#797979"/></svg>
<svg width="48" height="48" viewBox="0 0 48 48" id="sort-grey-48" y="600"><path d="M6 36h12v-4H6v4zm0-24v4h36v-4H6zm0 14h24v-4H6v4z" fill="#797979"/></svg>
<svg width="24" height="24" viewBox="0 0 24 24" id="sort-white-24" y="648"><path d="M3 18h6v-2H3v2zM3 6v2h18V6H3zm0 7h12v-2H3v2z" fill="#fff"/></svg>
<svg width="48" height="48" viewBox="0 0 48 48" id="sort-white-48" y="672"><path d="M6 36h12v-4H6v4zm0-24v4h36v-4H6zm0 14h24v-4H6v4z" fill="#fff"/></svg>
</svg>