<svg xmlns="http://www.w3.org/2000/svg" xmlns:xlink="http://www.w3.org/1999/xlink" width="367" height="6846" viewBox="0 0 367 6846"><svg width="24" height="24" viewBox="0 0 24 24" id="business-grey-24" y="0"><path d="M12 7V3H2v18h20V7H12zM6 19H4v-2h2v2zm0-4H4v-2h2v2zm0-4H4V9h2v2zm0-4H4V5h2v2zm4 12H8v-2h2v2zm0-4H8v-2h2v2zm0-4H8V9h2v2zm0-4H8V5h2v2zm10 12h-8v-2h2v-2h-2v-2h2v-2h-2V9h8v10zm-2-8h-2v2h2v-2zm0 4h-2v2h2v-2z" fill="#797979"/></svg>
<svg width="48" height="48" viewBox="0 0 48 48" id="business-grey-48" y="24"><path d="M24 14V6H4v36h40V14H24zM12 38H8v-4h4v4zm0-8H8v-4h4v4zm0-8H8v-4h4v4zm0-8H8v-4h4v4zm8 24h-4v-4h4v4zm0-8h-4v-4h4v4zm0-8h-4v-4h4v4zm0-8h-4v-4h4v4zm20 24H24v-4h4v-4h-4v-4h4v-4h-4v-4h16v20zm-4-16h-4v4h4v-4zm0 8h-4v4h4v-4z" fill="#797979"/></svg>
<svg width="24" height="24" viewBox="0 0 24 24" id="business-msu-blue-24" y="72"><path d="M12 7V3H2v18h20V7H12zM6 19H4v-2h2v2zm0-4H4v-2h2v2zm0-4H4V9h2v2zm0-4H4V5h2v2zm4 12H8v-2h2v2zm0-4H8v-2h2v2zm0-4H8V9h2v2zm0-4H8V5h2v2zm10 12h-8v-2h2v-2h-2v-2h2v-2h-2V9h8v10zm-2-8h-2v2h2v-2zm0 4h-2v2h2v-2z" fill="#5381ac"/></svg>
<svg width="48" height="48" viewBox="0 0 48 48" id="business-msu-blue-48" y="96"><path d="M24 14V6H4v36h40V14H24zM12 38H8v-4h4v4zm0-8H8v-4h4v4zm0-8H8v-4h4v4zm0-8H8v-4h4v4zm8 24h-4v-4h4v4zm0-8h-4v-4h4v4zm0-8h-4v-4h4v4zm0-8h-4v-4h4v4zm20 24H24v-4h4v-4h-4v-4h4v-4h-4v-4h16v20zm-4-16h-4v4h4v-4zm0 8h-4v4h4v-4z" fill="#5381ac"/></svg>
<svg width="24" height="24" viewBox="0 0 24 24" id="business-msu-gold-24" y="144"><path d="M12 7V3H2v18h20V7H12zM6 19H4v-2h2v2zm0-4H4v-2h2v2zm0-4H4V9h2v2zm0-4H4V5h2v2zm4 12H8v-2h2v2zm0-4H8v-2h2v2zm0-4H8V9h2v2zm0-4H8V5h2v2zm10 12h-8v-2h2v-2h-2v-2h2v-2h-2V9h8v10zm-2-8h-2v2h2v-2zm0 4h-2v2h2v-2z" fill="#ecac00"/></svg>
<svg width="48" height="48" viewBox="0 0 48 48" id="business-msu-gold-48" y="168"><path d="M24 14V6H4v36h40V14H24zM12 38H8v-4h4v4zm0-8H8v-4h4v4zm0-8H8v-4h4v4zm0-8H8v-4h4v4zm8 24h-4v-4h4v4zm0-8h-4v-4h4v4zm0-8h-4v-4h4v4zm0-8h-4v-4h4v4zm20 24H24v-4h4v-4h-4v-4h4v-4h-4v-4h16v20zm-4-16h-4v4h4v-4zm0 8h-4v4h4v-4z" fill="#ecac00"/></svg>
<svg width="24" height="24" viewBox="0 0 24 24" id="business-msu-navy-24" y="216"><path d="M12 7V3H2v18h20V7H12zM6 19H4v-2h2v2zm0-4H4v-2h2v2zm0-4H4V9h2v2zm0-4H4V5h2v2zm4 12H8v-2h2v2zm0-4H8v-2h2v2zm0-4H8V9h2v2zm0-4H8V5h2v2zm10 12h-8v-2h2v-2h-2v-2h2v-2h-2V9h8v10zm-2-8h-2v2h2v-2zm0 4h-2v2h2v-2z" fill="#142C43"/></svg>
<svg width="48" height="48" viewBox="0 0 48 48" id="business-msu-navy-48" y="240"><path d="M24 14V6H4v36h40V14H24zM12 38H8v-4h4v4zm0-8H8v-4h4v4zm0-8H8v-4h4v4zm0-8H8v-4h4v4zm8 24h-4v-4h4v4zm0-8h-4v-4h4v4zm0-8h-4v-4h4v4zm0-8h-4v-4h4v4zm20 24H24v-4h4v-4h-4v-4h4v-4h-4v-4h16v20zm-4-16h-4v4h4v-4zm0 8h-4v4h4v-4z" fill="#142C43"/></svg>
<svg width="24" height="24" viewBox="0 0 24 24" id="business-red-24" y="288"><path d="M12 7V3H2v18h20V7H12zM6 19H4v-2h2v2zm0-4H4v-2h2v2zm0-4H4V9h2v2zm0-4H4V5h2v2zm4 12H8v-2h2v2zm0-4H8v-2h2v2zm0-4H8V9h2v2zm0-4H8V5h2v2zm10 12h-8v-2h2v-2h-2v-2h2v-2h-2V9h8v10zm-2-8h-2v2h2v-2zm0 4h-2v2h2v-2z" fill="#fa5e5b"/></svg>
<svg width="48" height="48" viewBox="0 0 48 48" id="business-red-48" y="312"><path d="M24 14V6H4v36h40V14H24zM12 38H8v-4h4v4zm0-8H8v-4h4v4zm0-8H8v-4h4v4zm0-8H8v-4h4v4zm8 24h-4v-4h4v4zm0-8h-4v-4h4v4zm0-8h-4v-4h4v4zm0-8h-4v-4h4v4zm20 24H24v-4h4v-4h-4v-4h4v-4h-4v-4h16v20zm-4-16h-4v4h4v-4zm0 8h-4v4h4v-4z" fill="#fa5e5b"/></svg>
<svg width="24" height="24" viewBox="0 0 24 24" id="business-white-24" y="360"><path d="M12 7V3H2v18h20V7H12zM6 19H4v-2h2v2zm0-4H4v-2h2v2zm0-4H4V9h2v2zm0-4H4V5h2v2zm4 12H8v-2h2v2zm0-4H8v-2h2v2zm0-4H8V9h2v2zm0-4H8V5h2v2zm10 12h-8v-2h2v-2h-2v-2h2v-2h-2V9h8v10zm-2-8h-2v2h2v-2zm0 4h-2v2h2v-2z" fill="#fff"/></svg>
<svg width="48" height="48" viewBox="0 0 48 48" id="business-white-48" y="384"><path d="M24 14V6H4v36h40V14H24zM12 38H8v-4h4v4zm0-8H8v-4h4v4zm0-8H8v-4h4v4zm0-8H8v-4h4v4zm8 24h-4v-4h4v4zm0-8h-4v-4h4v4zm0-8h-4v-4h4v4zm0-8h-4v-4h4v4zm20 24H24v-4h4v-4h-4v-4h4v-4h-4v-4h16v20zm-4-16h-4v4h4v-4zm0 8h-4v4h4v-4z" fill="#fff"/></svg>
<svg width="24" height="24" viewBox="0 0 24 24" id="business-yellow-24" y="432"><path d="M12 7V3H2v18h20V7H12zM6 19H4v-2h2v2zm0-4H4v-2h2v2zm0-4H4V9h2v2zm0-4H4V5h2v2zm4 12H8v-2h2v2zm0-4H8v-2h2v2zm0-4H8V9h2v2zm0-4H8V5h2v2zm10 12h-8v-2h2v-2h-2v-2h2v-2h-2V9h8v10zm-2-8h-2v2h2v-2zm0 4h-2v2h2v-2z" fill="#f4e565"/></svg>
<svg width="48" height="48" viewBox="0 0 48 48" id="business-yellow-48" y="456"><path d="M24 14V6H4v36h40V14H24zM12 38H8v-4h4v4zm0-8H8v-4h4v4zm0-8H8v-4h4v4zm0-8H8v-4h4v4zm8 24h-4v-4h4v4zm0-8h-4v-4h4v4zm0-8h-4v-4h4v4zm0-8h-4v-4h4v4zm20 24H24v-4h4v-4h-4v-4h4v-4h-4v-4h16v20zm-4-16h-4v4h4v-4zm0 8h-4v4h4v-4z" fill="#f4e565"/></svg>
<svg width="24" height="24" viewBox="0 0 24 24" id="chevron_left-grey-24" y="504"><path d="M15.41 7.41L14 6l-6 6 6 6 1.41-1.41L10.83 12z" fill="#797979"/></svg>
<svg width="48" height="48" viewBox="0 0 48 48" id="chevron_left-grey-48" y="528"><path d="M30.83 14.83L28 12 16 24l12 12 2.83-2.83L21.66 24z" fill="#797979"/></svg>
<svg width="24" height="24" viewBox="0 0 24 24" id="chevron_left-msu-blue-24" y="576"><path d="M15.41 7.41L14 6l-6 6 6 6 1.41-1.41L10.83 12z" fill="#5381ac"/></svg>
<svg width="48" height="48" viewBox="0 0 48 48" id="chevron_left-msu-blue-48" y="600"><path d="M30.83 14.83L28 12 16 24l12 12 2.83-2.83L21.66 24z" fill="#5381ac"/></svg>
<svg width="24" height="24" viewBox="0 0 24 24" id="chevron_left-msu-gold-24" y="648"><path d="M15.41 7.41L14 6l-6 6 6 6 1.41-1.41L10.83 12z" fill="#ecac00"/></svg>
<svg width="48" height="48" viewBox="0 0 48 48" id="chevron_left-msu-gold-48" y="672"><path d="M30.83 14.83L28 12 16 24l12 12 2.83-2.83L21.66 24z" fill="#ecac00"/></svg>
<svg width="24" height="24" viewBox="0 0 24 24" id="chevron_left-msu-navy-24" y="720"><path d="M15.41 7.41L14 6l-6 6 6 6 1.41-1.41L10.83 12z" fill="#142C43"/></svg>
<svg width="48" height="48" viewBox="0 0 48 48" id="chevron_left-msu-navy-48" y="744"><path d="M30.83 14.83L28 12 16 24l12 12 2.83-2.83L21.66 24z" fill="#142C43"/></svg>
<svg width="24" height="24" viewBox="0 0 24 24" id="chevron_left-red-24" y="792"><path d="M15.41 7.41L14 6l-6 6 6 6 1.41-1.41L10.83 12z" fill="#fa5e5b"/></svg>
<svg width="48" height="48" viewBox="0 0 48 48" id="chevron_left-red-48" y="816"><path d="M30.83 14.83L28 12 16 24l12 12 2.83-2.83L21.66 24z" fill="#fa5e5b"/></svg>
<svg width="24" height="24" viewBox="0 0 24 24" id="chevron_left-white-24" y="864"><path d="M15.41 7.41L14 6l-6 6 6 6 1.41-1.41L10.83 12z" fill="#fff"/></svg>
<svg width="48" height="48" viewBox="0 0 48 48" id="chevron_left-white-48" y="888"><path d="M30.83 14.83L28 12 16 24l12 12 2.83-2.83L21.66 24z" fill="#fff"/></svg>
<svg width="24" height="24" viewBox="0 0 24 24" id="chevron_left-yellow-24" y="936"><path d="M15.41 7.41L14 6l-6 6 6 6 1.41-1.41L10.83 12z" fill="#f4e565"/></svg>
<svg width="48" height="48" viewBox="0 0 48 48" id="chevron_left-yellow-48" y="960"><path d="M30.83 14.83L28 12 16 24l12 12 2.83-2.83L21.66 24z" fill="#f4e565"/></svg>
<svg width="24" height="24" viewBox="0 0 24 24" id="chevron_right-grey-24" y="1008"><path d="M10 6L8.59 7.41 13.17 12l-4.58 4.59L10 18l6-6z" fill="#797979"/></svg>
<svg width="48" height="48" viewBox="0 0 48 48" id="chevron_right-grey-48" y="1032"><path d="M20 12l-2.83 2.83L26.34 24l-9.17 9.17L20 36l12-12z" fill="#797979"/></svg>
<svg width="24" height="24" viewBox="0 0 24 24" id="chevron_right-msu-blue-24" y="1080"><path d="M10 6L8.59 7.41 13.17 12l-4.58 4.59L10 18l6-6z" fill="#5381ac"/></svg>
<svg width="48" height="48" viewBox="0 0 48 48" id="chevron_right-msu-blue-48" y="1104"><path d="M20 12l-2.83 2.83L26.34 24l-9.17 9.17L20 36l12-12z" fill="#5381ac"/></svg>
<svg width="24" height="24" viewBox="0 0 24 24" id="chevron_right-msu-gold-24" y="1152"><path d="M10 6L8.59 7.41 13.17 12l-4.58 4.59L10 18l6-6z" fill="#ecac00"/></svg>
<svg width="48" height="48" viewBox="0 0 48 48" id="chevron_right-msu-gold-48" y="1176"><path d="M20 12l-2.83 2.83L26.34 24l-9.17 9.17L20 36l12-12z" fill="#ecac00"/></svg>
<svg width="24" height="24" viewBox="0 0 24 24" id="chevron_right-msu-navy-24" y="1224"><path d="M10 6L8.59 7.41 13.17 12l-4.58 4.59L10 18l6-6z" fill="#142C43"/></svg>
<svg width="48" height="48" viewBox="0 0 48 48" id="chevron_right-msu-navy-48" y="1248"><path d="M20 12l-2.83 2.83L26.34 24l-9.17 9.17L20 36l12-12z" fill="#142C43"/></svg>
<svg width="24" height="24" viewBox="0 0 24 24" id="chevron_right-red-24" y="1296"><path d="M10 6L8.59 7.41 13.17 12l-4.58 4.59L10 18l6-6z" fill="#fa5e5b"/></svg>
<svg width="48" height="48" viewBox="0 0 48 48" id="chevron_right-red-48" y="1320"><path d="M20 12l-2.83 2.83L26.34 24l-9.17 9.17L20 36l12-12z" fill="#fa5e5b"/></svg>
<svg width="24" height="24" viewBox="0 0 24 24" id="chevron_right-white-24" y="1368"><path d="M10 6L8.59 7.41 13.17 12l-4.58 4.59L10 18l6-6z" fill="#fff"/></svg>
<svg width="48" height="48" viewBox="0 0 48 48" id="chevron_right-white-48" y="1392"><path d="M20 12l-2.83 2.83L26.34 24l-9.17 9.17L20 36l12-12z" fill="#fff"/></svg>
<svg width="24" height="24" viewBox="0 0 24 24" id="chevron_right-yellow-24" y="1440"><path d="M10 6L8.59 7.41 13.17 12l-4.58 4.59L10 18l6-6z" fill="#f4e565"/></svg>
<svg width="48" height="48" viewBox="0 0 48 48" id="chevron_right-yellow-48" y="1464"><path d="M20 12l-2.83 2.83L26.34 24l-9.17 9.17L20 36l12-12z" fill="#f4e565"/></svg>
<svg width="24" height="24" viewBox="0 0 24 24" id="error-grey-24" y="1512"><path d="M12 2C6.48 2 2 6.48 2 12s4.48 10 10 10 10-4.48 10-10S17.52 2 12 2zm1 15h-2v-2h2v2zm0-4h-2V7h2v6z" fill="#797979"/></svg>
<svg width="48" height="48" viewBox="0 0 48 48" id="error-grey-48" y="1536"><path d="M24 4C12.96 4 4 12.95 4 24s8.96 20 20 20 20-8.95 20-20S35.04 4 24 4zm2 30h-4v-4h4v4zm0-8h-4V14h4v12z" fill="#797979"/></svg>
<svg width="24" height="24" viewBox="0 0 24 24" id="error-msu-blue-24" y="1584"><path d="M12 2C6.48 2 2 6.48 2 12s4.48 10 10 10 10-4.48 10-10S17.52 2 12 2zm1 15h-2v-2h2v2zm0-4h-2V7h2v6z" fill="#5381ac"/></svg>
<svg width="48" height="48" viewBox="0 0 48 48" id="error-msu-blue-48" y="1608"><path d="M24 4C12.96 4 4 12.95 4 24s8.96 20 20 20 20-8.95 20-20S35.04 4 24 4zm2 30h-4v-4h4v4zm0-8h-4V14h4v12z" fill="#5381ac"/></svg>
<svg width="24" height="24" viewBox="0 0 24 24" id="error-msu-gold-24" y="1656"><path d="M12 2C6.48 2 2 6.48 2 12s4.48 10 10 10 10-4.48 10-10S17.52 2 12 2zm1 15h-2v-2h2v2zm0-4h-2V7h2v6z" fill="#ecac00"/></svg>
<svg width="48" height="48" viewBox="0 0 48 48" id="error-msu-gold-48" y="1680"><path d="M24 4C12.96 4 4 12.95 4 24s8.96 20 20 20 20-8.95 20-20S35.04 4 24 4zm2 30h-4v-4h4v4zm0-8h-4V14h4v12z" fill="#ecac00"/></svg>
<svg width="24" height="24" viewBox="0 0 24 24" id="error-msu-navy-24" y="1728"><path d="M12 2C6.48 2 2 6.48 2 12s4.48 10 10 10 10-4.48 10-10S17.52 2 12 2zm1 15h-2v-2h2v2zm0-4h-2V7h2v6z" fill="#142C43"/></svg>
<svg width="48" height="48" viewBox="0 0 48 48" id="error-msu-navy-48" y="1752"><path d="M24 4C12.96 4 4 12.95 4 24s8.96 20 20 20 20-8.95 20-20S35.04 4 24 4zm2 30h-4v-4h4v4zm0-8h-4V14h4v12z" fill="#142C43"/></svg>
<svg width="24" height="24" viewBox="0 0 24 24" id="error-red-24" y="1800"><path d="M12 2C6.48 2 2 6.48 2 12s4.48 10 10 10 10-4.48 10-10S17.52 2 12 2zm1 15h-2v-2h2v2zm0-4h-2V7h2v6z" fill="#fa5e5b"/></svg>
<svg width="48" height="48" viewBox="0 0 48 48" id="error-red-48" y="1824"><path d="M24 4C12.96 4 4 12.95 4 24s8.96 20 20 20 20-8.95 20-20S35.04 4 24 4zm2 30h-4v-4h4v4zm0-8h-4V14h4v12z" fill="#fa5e5b"/></svg>
<svg width="24" height="24" viewBox="0 0 24 24" id="error-white-24" y="1872"><path d="M12 2C6.48 2 2 6.48 2 12s4.48 10 10 10 10-4.48 10-10S17.52 2 12 2zm1 15h-2v-2h2v2zm0-4h-2V7h2v6z" fill="#fff"/></svg>
<svg width="48" height="48" viewBox="0 0 48 48" id="error-white-48" y="1896"><path d="M24 4C12.96 4 4 12.95 4 24s8.96 20 20 20 20-8.95 20-20S35.04 4 24 4zm2 30h-4v-4h4v4zm0-8h-4V14h4v12z" fill="#fff"/></svg>
<svg width="24" height="24" viewBox="0 0 24 24" id="error-yellow-24" y="1944"><path d="M12 2C6.48 2 2 6.48 2 12s4.48 10 10 10 10-4.48 10-10S17.52 2 12 2zm1 15h-2v-2h2v2zm0-4h-2V7h2v6z" fill="#f4e565"/></svg>
<svg width="48" height="48" viewBox="0 0 48 48" id="error-yellow-48" y="1968"><path d="M24 4C12.96 4 4 12.95 4 24s8.96 20 20 20 20-8.95 20-20S35.04 4 24 4zm2 30h-4v-4h4v4zm0-8h-4V14h4v12z" fill="#f4e565"/></svg>
<svg width="24" height="24" viewBox="0 0 24 24" id="expand_less-grey-24" y="2016"><path d="M12 8l-6 6 1.41 1.41L12 10.83l4.59 4.58L18 14z" fill="#797979"/></svg>
<svg width="48" height="48" viewBox="0 0 48 48" id="expand_less-grey-48" y="2040"><path d="M24 16L12 28l2.83 2.83L24 21.66l9.17 9.17L36 28z" fill="#797979"/></svg>
<svg width="24" height="24" viewBox="0 0 24 24" id="expand_less-msu-blue-24" y="2088"><path d="M12 8l-6 6 1.41 1.41L12 10.83l4.59 4.58L18 14z" fill="#5381ac"/></svg>
<svg width="48" height="48" viewBox="0 0 48 48" id="expand_less-msu-blue-48" y="2112"><path d="M24 16L12 28l2.83 2.83L24 21.66l9.17 9.17L36 28z" fill="#5381ac"/></svg>
<svg width="24" height="24" viewBox="0 0 24 24" id="expand_less-msu-gold-24" y="2160"><path d="M12 8l-6 6 1.41 1.41L12 10.83l4.59 4.58L18 14z" fill="#ecac00"/></svg>
<svg width="48" height="48" viewBox="0 0 48 48" id="expand_less-msu-gold-48" y="2184"><path d="M24 16L12 28l2.83 2.83L24 21.66l9.17 9.17L36 28z" fill="#ecac00"/></svg>
<svg width="24" height="24" viewBox="0 0 24 24" id="expand_less-msu-navy-24" y="2232"><path d="M12 8l-6 6 1.41 1.41L12 10.83l4.59 4.58L18 14z" fill="#142C43"/></svg>
<svg width="48" height="48" viewBox="0 0 48 48" id="expand_less-msu-navy-48" y="2256"><path d="M24 16L12 28l2.83 2.83L24 21.66l9.17 9.17L36 28z" fill="#142C43"/></svg>
<svg width="24" height="24" viewBox="0 0 24 24" id="expand_less-red-24" y="2304"><path d="M12 8l-6 6 1.41 1.41L12 10.83l4.59 4.58L18 14z" fill="#fa5e5b"/></svg>
<svg width="48" height="48" viewBox="0 0 48 48" id="expand_less-red-48" y="2328"><path d="M24 16L12 28l2.83 2.83L24 21.66l9.17 9.17L36 28z" fill="#fa5e5b"/></svg>
<svg width="24" height="24" viewBox="0 0 24 24" id="expand_less-white-24" y="2376"><path d="M12 8l-6 6 1.41 1.41L12 10.83l4.59 4.58L18 14z" fill="#fff"/></svg>
<svg width="48" height="48" viewBox="0 0 48 48" id="expand_less-white-48" y="2400"><path d="M24 16L12 28l2.83 2.83L24 21.66l9.17 9.17L36 28z" fill="#fff"/></svg>
<svg width="24" height="24" viewBox="0 0 24 24" id="expand_less-yellow-24" y="2448"><path d="M12 8l-6 6 1.41 1.41L12 10.83l4.59 4.58L18 14z" fill="#f4e565"/></svg>
<svg width="48" height="48" viewBox="0 0 48 48" id="expand_less-yellow-48" y="2472"><path d="M24 16L12 28l2.83 2.83L24 21.66l9.17 9.17L36 28z" fill="#f4e565"/></svg>
<svg width="24" height="24" viewBox="0 0 24 24" id="expand_more-grey-24" y="2520"><path d="M16.59 8.59L12 13.17 7.41 8.59 6 10l6 6 6-6z" fill="#797979"/></svg>
<svg width="48" height="48" viewBox="0 0 48 48" id="expand_more-grey-48" y="2544"><path d="M33.17 17.17L24 26.34l-9.17-9.17L12 20l12 12 12-12z" fill="#797979"/></svg>
<svg width="24" height="24" viewBox="0 0 24 24" id="expand_more-msu-blue-24" y="2592"><path d="M16.59 8.59L12 13.17 7.41 8.59 6 10l6 6 6-6z" fill="#5381ac"/></svg>
<svg width="48" height="48" viewBox="0 0 48 48" id="expand_more-msu-blue-48" y="2616"><path d="M33.17 17.17L24 26.34l-9.17-9.17L12 20l12 12 12-12z" fill="#5381ac"/></svg>
<svg width="24" height="24" viewBox="0 0 24 24" id="expand_more-msu-gold-24" y="2664"><path d="M16.59 8.59L12 13.17 7.41 8.59 6 10l6 6 6-6z" fill="#ecac00"/></svg>
<svg width="48" height="48" viewBox="0 0 48 48" id="expand_more-msu-gold-48" y="2688"><path d="M33.17 17.17L24 26.34l-9.17-9.17L12 20l12 12 12-12z" fill="#ecac00"/></svg>
<svg width="24" height="24" viewBox="0 0 24 24" id="expand_more-msu-navy-24" y="2736"><path d="M16.59 8.59L12 13.17 7.41 8.59 6 10l6 6 6-6z" fill="#142C43"/></svg>
<svg width="48" height="48" viewBox="0 0 48 48" id="expand_more-msu-navy-48" y="2760"><path d="M33.17 17.17L24 26.34l-9.17-9.17L12 20l12 12 12-12z" fill="#142C43"/></svg>
<svg width="24" height="24" viewBox="0 0 24 24" id="expand_more-red-24" y="2808"><path d="M16.59 8.59L12 13.17 7.41 8.59 6 10l6 6 6-6z" fill="#fa5e5b"/></svg>
<svg width="48" height="48" viewBox="0 0 48 48" id="expand_more-red-48" y="2832"><path d="M33.17 17.17L24 26.34l-9.17-9.17L12 20l12 12 12-12z" fill="#fa5e5b"/></svg>
<svg width="24" height="24" viewBox="0 0 24 24" id="expand_more-white-24" y="2880"><path d="M16.59 8.59L12 13.17 7.41 8.59 6 10l6 6 6-6z" fill="#fff"/></svg>
<svg width="48" height="48" viewBox="0 0 48 48" id="expand_more-white-48" y="2904"><path d="M33.17 17.17L24 26.34l-9.17-9.17L12 20l12 12 12-12z" fill="#fff"/></svg>
<svg width="24" height="24" viewBox="0 0 24 24" id="expand_more-yellow-24" y="2952"><path d="M16.59 8.59L12 13.17 7.41 8.59 6 10l6 6 6-6z" fill="#f4e565"/></svg>
<svg width="48" height="48" viewBox="0 0 48 48" id="expand_more-yellow-48" y="2976"><path d="M33.17 17.17L24 26.34l-9.17-9.17L12 20l12 12 12-12z" fill="#f4e565"/></svg>
<svg width="24" height="24" viewBox="0 0 24 24" id="insert_photo-grey-24" y="3024"><path d="M21 19V5c0-1.1-.9-2-2-2H5c-1.1 0-2 .9-2 2v14c0 1.1.9 2 2 2h14c1.1 0 2-.9 2-2zM8.5 13.5l2.5 3.01L14.5 12l4.5 6H5l3.5-4.5z" fill="#797979"/></svg>
<svg width="48" height="48" viewBox="0 0 48 48" id="insert_photo-grey-48" y="3048"><path d="M42 38V10c0-2.21-1.79-4-4-4H10c-2.21 0-4 1.79-4 4v28c0 2.21 1.79 4 4 4h28c2.21 0 4-1.79 4-4zM17 27l5 6.01L29 24l9 12H10l7-9z" fill="#797979"/></svg>
<svg width="24" height="24" viewBox="0 0 24 24" id="insert_photo-msu-blue-24" y="3096"><path d="M21 19V5c0-1.1-.9-2-2-2H5c-1.1 0-2 .9-2 2v14c0 1.1.9 2 2 2h14c1.1 0 2-.9 2-2zM8.5 13.5l2.5 3.01L14.5 12l4.5 6H5l3.5-4.5z" fill="#5381ac"/></svg>
<svg width="48" height="48" viewBox="0 0 48 48" id="insert_photo-msu-blue-48" y="3120"><path d="M42 38V10c0-2.21-1.79-4-4-4H10c-2.21 0-4 1.79-4 4v28c0 2.21 1.79 4 4 4h28c2.21 0 4-1.79 4-4zM17 27l5 6.01L29 24l9 12H10l7-9z" fill="#5381ac"/></svg>
<svg width="24" height="24" viewBox="0 0 24 24" id="insert_photo-msu-gold-24" y="3168"><path d="M21 19V5c0-1.1-.9-2-2-2H5c-1.1 0-2 .9-2 2v14c0 1.1.9 2 2 2h14c1.1 0 2-.9 2-2zM8.5 13.5l2.5 3.01L14.5 12l4.5 6H5l3.5-4.5z" fill="#ecac00"/></svg>
<svg width="48" height="48" viewBox="0 0 48 48" id="insert_photo-msu-gold-48" y="3192"><path d="M42 38V10c0-2.21-1.79-4-4-4H10c-2.21 0-4 1.79-4 4v28c0 2.21 1.79 4 4 4h28c2.21 0 4-1.79 4-4zM17 27l5 6.01L29 24l9 12H10l7-9z" fill="#ecac00"/></svg>
<svg width="24" height="24" viewBox="0 0 24 24" id="insert_photo-msu-navy-24" y="3240"><path d="M21 19V5c0-1.1-.9-2-2-2H5c-1.1 0-2 .9-2 2v14c0 1.1.9 2 2 2h14c1.1 0 2-.9 2-2zM8.5 13.5l2.5 3.01L14.5 12l4.5 6H5l3.5-4.5z" fill="#142C43"/></svg>
<svg width="48" height="48" viewBox="0 0 48 48" id="insert_photo-msu-navy-48" y="3264"><path d="M42 38V10c0-2.21-1.79-4-4-4H10c-2.21 0-4 1.79-4 4v28c0 2.21 1.79 4 4 4h28c2.21 0 4-1.79 4-4zM17 27l5 6.01L29 24l9 12H10l7-9z" fill="#142C43"/></svg>
<svg width="24" height="24" viewBox="0 0 24 24" id="insert_photo-red-24" y="3312"><path d="M21 19V5c0-1.1-.9-2-2-2H5c-1.1 0-2 .9-2 2v14c0 1.1.9 2 2 2h14c1.1 0 2-.9 2-2zM8.5 13.5l2.5 3.01L14.5 12l4.5 6H5l3.5-4.5z" fill="#fa5e5b"/></svg>
<svg width="48" height="48" viewBox="0 0 48 48" id="insert_photo-red-48" y="3336"><path d="M42 38V10c0-2.21-1.79-4-4-4H10c-2.21 0-4 1.79-4 4v28c0 2.21 1.79 4 4 4h28c2.21 0 4-1.79 4-4zM17 27l5 6.01L29 24l9 12H10l7-9z" fill="#fa5e5b"/></svg>
<svg width="24" height="24" viewBox="0 0 24 24" id="insert_photo-white-24" y="3384"><path d="M21 19V5c0-1.1-.9-2-2-2H5c-1.1 0-2 .9-2 2v14c0 1.1.9 2 2 2h14c1.1 0 2-.9 2-2zM8.5 13.5l2.5 3.01L14.5 12l4.5 6H5l3.5-4.5z" fill="#fff"/></svg>
<svg width="48" height="48" viewBox="0 0 48 48" id="insert_photo-white-48" y="3408"><path d="M42 38V10c0-2.21-1.79-4-4-4H10c-2.21 0-4 1.79-4 4v28c0 2.21 1.79 4 4 4h28c2.21 0 4-1.79 4-4zM17 27l5 6.01L29 24l9 12H10l7-9z" fill="#fff"/></svg>
<svg width="24" height="24" viewBox="0 0 24 24" id="insert_photo-yellow-24" y="3456"><path d="M21 19V5c0-1.1-.9-2-2-2H5c-1.1 0-2 .9-2 2v14c0 1.1.9 2 2 2h14c1.1 0 2-.9 2-2zM8.5 13.5l2.5 3.01L14.5 12l4.5 6H5l3.5-4.5z" fill="#f4e565"/></svg>
<svg width="48" height="48" viewBox="0 0 48 48" id="insert_photo-yellow-48" y="3480"><path d="M42 38V10c0-2.21-1.79-4-4-4H10c-2.21 0-4 1.79-4 4v28c0 2.21 1.79 4 4 4h28c2.21 0 4-1.79 4-4zM17 27l5 6.01L29 24l9 12H10l7-9z" fill="#f4e565"/></svg>
<svg width="48" height="48" viewBox="0 0 48 48" id="instagram-dark-large" y="3528"><path fill="#444" d="M36.758 4.09h-25.75c-4.472 0-8.112 3.638-8.112 8.112v25.752c0 4.472 3.638 8.112 8.112 8.112H36.76c4.472 0 8.112-3.638 8.112-8.112V12.202c0-4.472-3.638-8.11-8.112-8.11zm2.326 4.838l.928-.004v7.114l-7.09.022-.024-7.114 6.188-.02zM17.89 20.768c1.344-1.86 3.526-3.08 5.99-3.08s4.646 1.22 5.99 3.08c.874 1.214 1.398 2.7 1.398 4.308 0 4.074-3.318 7.388-7.388 7.388-4.074 0-7.388-3.314-7.388-7.388 0-1.608.524-3.094 1.398-4.308zm22.888 17.184c0 2.22-1.804 4.022-4.022 4.022h-25.75c-2.218 0-4.022-1.802-4.022-4.022V20.768h6.266c-.542 1.33-.844 2.784-.844 4.308 0 6.328 5.148 11.478 11.478 11.478S35.36 31.402 35.36 25.076c0-1.524-.306-2.976-.846-4.308h6.268v17.184z"/></svg>
<svg width="24" height="24" viewBox="0 0 24 24" id="instagram-dark-small" y="3576"><path fill="#444" d="M18.38 2.045H5.503c-2.236 0-4.056 1.82-4.056 4.056v12.877c0 2.236 1.82 4.056 4.056 4.056H18.38c2.236 0 4.056-1.82 4.056-4.056V6.1c0-2.235-1.82-4.054-4.056-4.054zm1.162 2.42l.464-.003V8.02l-3.545.01-.01-3.557 3.093-.01zm-10.597 5.92c.672-.93 1.763-1.54 2.995-1.54s2.323.61 2.995 1.54c.437.606.7 1.35.7 2.153 0 2.037-1.66 3.694-3.695 3.694-2.037 0-3.694-1.657-3.694-3.694 0-.804.262-1.547.7-2.154zm11.444 8.59c0 1.11-.903 2.012-2.012 2.012H5.503c-1.11 0-2.01-.9-2.01-2.01v-8.593h3.132c-.27.665-.422 1.392-.422 2.154 0 3.164 2.574 5.74 5.74 5.74s5.737-2.577 5.737-5.74c0-.762-.153-1.488-.423-2.154h3.134v8.592z"/></svg>
<svg width="24" height="24" viewBox="0 0 24 24" id="instagram-white-small" y="3600"><path fill="#fff" d="M18.38 2.045H5.503c-2.236 0-4.056 1.82-4.056 4.056v12.877c0 2.236 1.82 4.056 4.056 4.056H18.38c2.236 0 4.056-1.82 4.056-4.056V6.1c0-2.235-1.82-4.054-4.056-4.054zm1.162 2.42l.464-.003V8.02l-3.545.01-.01-3.557 3.093-.01zm-10.597 5.92c.672-.93 1.763-1.54 2.995-1.54s2.323.61 2.995 1.54c.437.606.7 1.35.7 2.153 0 2.037-1.66 3.694-3.695 3.694-2.037 0-3.694-1.657-3.694-3.694 0-.804.262-1.547.7-2.154zm11.444 8.59c0 1.11-.903 2.012-2.012 2.012H5.503c-1.11 0-2.01-.9-2.01-2.01v-8.593h3.132c-.27.665-.422 1.392-.422 2.154 0 3.164 2.574 5.74 5.74 5.74s5.737-2.577 5.737-5.74c0-.762-.153-1.488-.423-2.154h3.134v8.592z"/></svg>
<svg width="24" height="24" viewBox="0 0 24 24" id="mail-grey-24" y="3624"><path d="M20 4H4c-1.1 0-1.99.9-1.99 2L2 18c0 1.1.9 2 2 2h16c1.1 0 2-.9 2-2V6c0-1.1-.9-2-2-2zm0 4l-8 5-8-5V6l8 5 8-5v2z" fill="#797979"/></svg>
<svg width="48" height="48" viewBox="0 0 48 48" id="mail-grey-48" y="3648"><path d="M40 8H8c-2.21 0-3.98 1.79-3.98 4L4 36c0 2.21 1.79 4 4 4h32c2.21 0 4-1.79 4-4V12c0-2.21-1.79-4-4-4zm0 8L24 26 8 16v-4l16 10 16-10v4z" fill="#797979"/></svg>
<svg width="24" height="24" viewBox="0 0 24 24" id="mail-msu-blue-24" y="3696"><path d="M20 4H4c-1.1 0-1.99.9-1.99 2L2 18c0 1.1.9 2 2 2h16c1.1 0 2-.9 2-2V6c0-1.1-.9-2-2-2zm0 4l-8 5-8-5V6l8 5 8-5v2z" fill="#5381ac"/></svg>
<svg width="48" height="48" viewBox="0 0 48 48" id="mail-msu-blue-48" y="3720"><path d="M40 8H8c-2.21 0-3.98 1.79-3.98 4L4 36c0 2.21 1.79 4 4 4h32c2.21 0 4-1.79 4-4V12c0-2.21-1.79-4-4-4zm0 8L24 26 8 16v-4l16 10 16-10v4z" fill="#5381ac"/></svg>
<svg width="24" height="24" viewBox="0 0 24 24" id="mail-msu-gold-24" y="3768"><path d="M20 4H4c-1.1 0-1.99.9-1.99 2L2 18c0 1.1.9 2 2 2h16c1.1 0 2-.9 2-2V6c0-1.1-.9-2-2-2zm0 4l-8 5-8-5V6l8 5 8-5v2z" fill="#ecac00"/></svg>
<svg width="48" height="48" viewBox="0 0 48 48" id="mail-msu-gold-48" y="3792"><path d="M40 8H8c-2.21 0-3.98 1.79-3.98 4L4 36c0 2.21 1.79 4 4 4h32c2.21 0 4-1.79 4-4V12c0-2.21-1.79-4-4-4zm0 8L24 26 8 16v-4l16 10 16-10v4z" fill="#ecac00"/></svg>
<svg width="24" height="24" viewBox="0 0 24 24" id="mail-msu-navy-24" y="3840"><path d="M20 4H4c-1.1 0-1.99.9-1.99 2L2 18c0 1.1.9 2 2 2h16c1.1 0 2-.9 2-2V6c0-1.1-.9-2-2-2zm0 4l-8 5-8-5V6l8 5 8-5v2z" fill="#142C43"/></svg>
<svg width="48" height="48" viewBox="0 0 48 48" id="mail-msu-navy-48" y="3864"><path d="M40 8H8c-2.21 0-3.98 1.79-3.98 4L4 36c0 2.21 1.79 4 4 4h32c2.21 0 4-1.79 4-4V12c0-2.21-1.79-4-4-4zm0 8L24 26 8 16v-4l16 10 16-10v4z" fill="#142C43"/></svg>
<svg width="24" height="24" viewBox="0 0 24 24" id="mail-red-24" y="3912"><path d="M20 4H4c-1.1 0-1.99.9-1.99 2L2 18c0 1.1.9 2 2 2h16c1.1 0 2-.9 2-2V6c0-1.1-.9-2-2-2zm0 4l-8 5-8-5V6l8 5 8-5v2z" fill="#fa5e5b"/></svg>
<svg width="48" height="48" viewBox="0 0 48 48" id="mail-red-48" y="3936"><path d="M40 8H8c-2.21 0-3.98 1.79-3.98 4L4 36c0 2.21 1.79 4 4 4h32c2.21 0 4-1.79 4-4V12c0-2.21-1.79-4-4-4zm0 8L24 26 8 16v-4l16 10 16-10v4z" fill="#fa5e5b"/></svg>
<svg width="24" height="24" viewBox="0 0 24 24" id="mail-white-24" y="3984"><path d="M20 4H4c-1.1 0-1.99.9-1.99 2L2 18c0 1.1.9 2 2 2h16c1.1 0 2-.9 2-2V6c0-1.1-.9-2-2-2zm0 4l-8 5-8-5V6l8 5 8-5v2z" fill="#fff"/></svg>
<svg width="48" height="48" viewBox="0 0 48 48" id="mail-white-48" y="4008"><path d="M40 8H8c-2.21 0-3.98 1.79-3.98 4L4 36c0 2.21 1.79 4 4 4h32c2.21 0 4-1.79 4-4V12c0-2.21-1.79-4-4-4zm0 8L24 26 8 16v-4l16 10 16-10v4z" fill="#fff"/></svg>
<svg width="24" height="24" viewBox="0 0 24 24" id="mail-yellow-24" y="4056"><path d="M20 4H4c-1.1 0-1.99.9-1.99 2L2 18c0 1.1.9 2 2 2h16c1.1 0 2-.9 2-2V6c0-1.1-.9-2-2-2zm0 4l-8 5-8-5V6l8 5 8-5v2z" fill="#f4e565"/></svg>
<svg width="48" height="48" viewBox="0 0 48 48" id="mail-yellow-48" y="4080"><path d="M40 8H8c-2.21 0-3.98 1.79-3.98 4L4 36c0 2.21 1.79 4 4 4h32c2.21 0 4-1.79 4-4V12c0-2.21-1.79-4-4-4zm0 8L24 26 8 16v-4l16 10 16-10v4z" fill="#f4e565"/></svg>
<svg width="24" height="24" viewBox="0 0 24 24" id="menu-grey-24" y="4128"><path d="M3 18h18v-2H3v2zm0-5h18v-2H3v2zm0-7v2h18V6H3z" fill="#797979"/></svg>
<svg width="48" height="48" viewBox="0 0 48 48" id="menu-grey-48" y="4152"><path d="M6 36h36v-4H6v4zm0-10h36v-4H6v4zm0-14v4h36v-4H6z" fill="#797979"/></svg>
<svg width="24" height="24" viewBox="0 0 24 24" id="menu-msu-blue-24" y="4200"><path d="M3 18h18v-2H3v2zm0-5h18v-2H3v2zm0-7v2h18V6H3z" fill="#5381ac"/></svg>
<svg width="48" height="48" viewBox="0 0 48 48" id="menu-msu-blue-48" y="4224"><path d="M6 36h36v-4H6v4zm0-10h36v-4H6v4zm0-14v4h36v-4H6z" fill="#5381ac"/></svg>
<svg width="24" height="24" viewBox="0 0 24 24" id="menu-msu-gold-24" y="4272"><path d="M3 18h18v-2H3v2zm0-5h18v-2H3v2zm0-7v2h18V6H3z" fill="#ecac00"/></svg>
<svg width="48" height="48" viewBox="0 0 48 48" id="menu-msu-gold-48" y="4296"><path d="M6 36h36v-4H6v4zm0-10h36v-4H6v4zm0-14v4h36v-4H6z" fill="#ecac00"/></svg>
<svg width="24" height="24" viewBox="0 0 24 24" id="menu-msu-navy-24" y="4344"><path d="M3 18h18v-2H3v2zm0-5h18v-2H3v2zm0-7v2h18V6H3z" fill="#142C43"/></svg>
<svg width="48" height="48" viewBox="0 0 48 48" id="menu-msu-navy-48" y="4368"><path d="M6 36h36v-4H6v4zm0-10h36v-4H6v4zm0-14v4h36v-4H6z" fill="#142C43"/></svg>
<svg width="24" height="24" viewBox="0 0 24 24" id="menu-red-24" y="4416"><path d="M3 18h18v-2H3v2zm0-5h18v-2H3v2zm0-7v2h18V6H3z" fill="#fa5e5b"/></svg>
<svg width="48" height="48" viewBox="0 0 48 48" id="menu-red-48" y="4440"><path d="M6 36h36v-4H6v4zm0-10h36v-4H6v4zm0-14v4h36v-4H6z" fill="#fa5e5b"/></svg>
<svg width="24" height="24" viewBox="0 0 24 24" id="menu-white-24" y="4488"><path d="M3 18h18v-2H3v2zm0-5h18v-2H3v2zm0-7v2h18V6H3z" fill="#fff"/></svg>
<svg width="48" height="48" viewBox="0 0 48 48" id="menu-white-48" y="4512"><path d="M6 36h36v-4H6v4zm0-10h36v-4H6v4zm0-14v4h36v-4H6z" fill="#fff"/></svg>
<svg width="24" height="24" viewBox="0 0 24 24" id="menu-yellow-24" y="4560"><path d="M3 18h18v-2H3v2zm0-5h18v-2H3v2zm0-7v2h18V6H3z" fill="#f4e565"/></svg>
<svg width="48" height="48" viewBox="0 0 48 48" id="menu-yellow-48" y="4584"><path d="M6 36h36v-4H6v4zm0-10h36v-4H6v4zm0-14v4h36v-4H6z" fill="#f4e565"/></svg>
<svg width="24" height="24" viewBox="0 0 24 24" id="more_horiz-grey-24" y="4632"><path d="M6 10c-1.1 0-2 .9-2 2s.9 2 2 2 2-.9 2-2-.9-2-2-2zm12 0c-1.1 0-2 .9-2 2s.9 2 2 2 2-.9 2-2-.9-2-2-2zm-6 0c-1.1 0-2 .9-2 2s.9 2 2 2 2-.9 2-2-.9-2-2-2z" fill="#797979"/></svg>
<svg width="48" height="48" viewBox="0 0 48 48" id="more_horiz-grey-48" y="4656"><path d="M12 20c-2.21 0-4 1.79-4 4s1.79 4 4 4 4-1.79 4-4-1.79-4-4-4zm24 0c-2.21 0-4 1.79-4 4s1.79 4 4 4 4-1.79 4-4-1.79-4-4-4zm-12 0c-2.21 0-4 1.79-4 4s1.79 4 4 4 4-1.79 4-4-1.79-4-4-4z" fill="#797979"/></svg>
<svg width="24" height="24" viewBox="0 0 24 24" id="more_horiz-msu-blue-24" y="4704"><path d="M6 10c-1.1 0-2 .9-2 2s.9 2 2 2 2-.9 2-2-.9-2-2-2zm12 0c-1.1 0-2 .9-2 2s.9 2 2 2 2-.9 2-2-.9-2-2-2zm-6 0c-1.1 0-2 .9-2 2s.9 2 2 2 2-.9 2-2-.9-2-2-2z" fill="#5381ac"/></svg>
<svg width="48" height="48" viewBox="0 0 48 48" id="more_horiz-msu-blue-48" y="4728"><path d="M12 20c-2.21 0-4 1.79-4 4s1.79 4 4 4 4-1.79 4-4-1.79-4-4-4zm24 0c-2.21 0-4 1.79-4 4s1.79 4 4 4 4-1.79 4-4-1.79-4-4-4zm-12 0c-2.21 0-4 1.79-4 4s1.79 4 4 4 4-1.79 4-4-1.79-4-4-4z" fill="#5381ac"/></svg>
<svg width="24" height="24" viewBox="0 0 24 24" id="more_horiz-msu-gold-24" y="4776"><path d="M6 10c-1.1 0-2 .9-2 2s.9 2 2 2 2-.9 2-2-.9-2-2-2zm12 0c-1.1 0-2 .9-2 2s.9 2 2 2 2-.9 2-2-.9-2-2-2zm-6 0c-1.1 0-2 .9-2 2s.9 2 2 2 2-.9 2-2-.9-2-2-2z" fill="#ecac00"/></svg>
<svg width="48" height="48" viewBox="0 0 48 48" id="more_horiz-msu-gold-48" y="4800"><path d="M12 20c-2.21 0-4 1.79-4 4s1.79 4 4 4 4-1.79 4-4-1.79-4-4-4zm24 0c-2.21 0-4 1.79-4 4s1.79 4 4 4 4-1.79 4-4-1.79-4-4-4zm-12 0c-2.21 0-4 1.79-4 4s1.79 4 4 4 4-1.79 4-4-1.79-4-4-4z" fill="#ecac00"/></svg>
<svg width="24" height="24" viewBox="0 0 24 24" id="more_horiz-msu-navy-24" y="4848"><path d="M6 10c-1.1 0-2 .9-2 2s.9 2 2 2 2-.9 2-2-.9-2-2-2zm12 0c-1.1 0-2 .9-2 2s.9 2 2 2 2-.9 2-2-.9-2-2-2zm-6 0c-1.1 0-2 .9-2 2s.9 2 2 2 2-.9 2-2-.9-2-2-2z" fill="#142C43"/></svg>
<svg width="48" height="48" viewBox="0 0 48 48" id="more_horiz-msu-navy-48" y="4872"><path d="M12 20c-2.21 0-4 1.79-4 4s1.79 4 4 4 4-1.79 4-4-1.79-4-4-4zm24 0c-2.21 0-4 1.79-4 4s1.79 4 4 4 4-1.79 4-4-1.79-4-4-4zm-12 0c-2.21 0-4 1.79-4 4s1.79 4 4 4 4-1.79 4-4-1.79-4-4-4z" fill="#142C43"/></svg>
<svg width="24" height="24" viewBox="0 0 24 24" id="more_horiz-red-24" y="4920"><path d="M6 10c-1.1 0-2 .9-2 2s.9 2 2 2 2-.9 2-2-.9-2-2-2zm12 0c-1.1 0-2 .9-2 2s.9 2 2 2 2-.9 2-2-.9-2-2-2zm-6 0c-1.1 0-2 .9-2 2s.9 2 2 2 2-.9 2-2-.9-2-2-2z" fill="#fa5e5b"/></svg>
<svg width="48" height="48" viewBox="0 0 48 48" id="more_horiz-red-48" y="4944"><path d="M12 20c-2.21 0-4 1.79-4 4s1.79 4 4 4 4-1.79 4-4-1.79-4-4-4zm24 0c-2.21 0-4 1.79-4 4s1.79 4 4 4 4-1.79 4-4-1.79-4-4-4zm-12 0c-2.21 0-4 1.79-4 4s1.79 4 4 4 4-1.79 4-4-1.79-4-4-4z" fill="#fa5e5b"/></svg>
<svg width="24" height="24" viewBox="0 0 24 24" id="more_horiz-white-24" y="4992"><path d="M6 10c-1.1 0-2 .9-2 2s.9 2 2 2 2-.9 2-2-.9-2-2-2zm12 0c-1.1 0-2 .9-2 2s.9 2 2 2 2-.9 2-2-.9-2-2-2zm-6 0c-1.1 0-2 .9-2 2s.9 2 2 2 2-.9 2-2-.9-2-2-2z" fill="#fff"/></svg>
<svg width="48" height="48" viewBox="0 0 48 48" id="more_horiz-white-48" y="5016"><path d="M12 20c-2.21 0-4 1.79-4 4s1.79 4 4 4 4-1.79 4-4-1.79-4-4-4zm24 0c-2.21 0-4 1.79-4 4s1.79 4 4 4 4-1.79 4-4-1.79-4-4-4zm-12 0c-2.21 0-4 1.79-4 4s1.79 4 4 4 4-1.79 4-4-1.79-4-4-4z" fill="#fff"/></svg>
<svg width="24" height="24" viewBox="0 0 24 24" id="more_horiz-yellow-24" y="5064"><path d="M6 10c-1.1 0-2 .9-2 2s.9 2 2 2 2-.9 2-2-.9-2-2-2zm12 0c-1.1 0-2 .9-2 2s.9 2 2 2 2-.9 2-2-.9-2-2-2zm-6 0c-1.1 0-2 .9-2 2s.9 2 2 2 2-.9 2-2-.9-2-2-2z" fill="#f4e565"/></svg>
<svg width="48" height="48" viewBox="0 0 48 48" id="more_horiz-yellow-48" y="5088"><path d="M12 20c-2.21 0-4 1.79-4 4s1.79 4 4 4 4-1.79 4-4-1.79-4-4-4zm24 0c-2.21 0-4 1.79-4 4s1.79 4 4 4 4-1.79 4-4-1.79-4-4-4zm-12 0c-2.21 0-4 1.79-4 4s1.79 4 4 4 4-1.79 4-4-1.79-4-4-4z" fill="#f4e565"/></svg>
<svg width="367" height="126" viewBox="0 0 367 126" id="msu-logo-dark-large" y="5136"><path d="M63.204 75.59c-10.87 15.645-24.527 23.212-24.527 23.212C-17.076 63.41 5.535 5.547 5.535 5.547c34.196-10.03 65.866-.5 65.866-.5 5.33 15.987 5.937 29.847 3.85 41.645H65.194l-8.1-24.445-7.93 24.13h-25.82L43.93 61.905 36 85.868l21.093-14.85 6.11 4.573z" fill="#E2A72C"/><path d="M9.673 43.06l3.31-10.19-8.663-6.3h10.71l3.308-10.182 3.31 10.182h10.71l-8.664 6.3 3.308 10.19-8.664-6.3-8.665 6.3zM35.79 24.085l2.44-7.506-6.387-4.64h7.896l2.437-7.504 2.437 7.503H52.5l-6.38 4.64 2.44 7.505-6.383-4.64-6.387 4.64zM267.657 59.422c0-5.4-3-9.9-9.523-9.9h-6.602v19.8h6.602c6.523 0 9.523-4.424 9.523-9.9zm.678 21.227c4.424 5.25 9.447 9 13.95 9.523v1.576h-12.378l-14.85-19.727h-3.525V81.4c0 7.5.9 8.773 7.125 8.773v1.576h-20.25v-1.577c6.227 0 7.125-1.274 7.125-8.774V57.02c0-7.5-.898-8.698-7.125-8.698v-1.575h19.8c10.427 0 16.128 5.7 16.128 12.675 0 6.526-4.875 11.7-13.352 12.6l7.352 8.627zM91.39 81.32c0 7.5.974 8.775 7.2 8.775v1.576h-17.1v-1.575c6.225 0 7.124-1.274 7.124-8.774V56.943c0-7.5-.9-8.7-7.125-8.7V46.67h12.75l15.9 36.528 15.826-36.528h11.776v1.575c-6.3 0-7.2 1.2-7.2 8.7V81.32c0 7.5.9 8.775 7.2 8.775v1.576h-20.25v-1.575c6.224 0 7.125-1.274 7.125-8.774V56.87l-15.602 36.076h-.974L91.39 54.618V81.32zM173.708 48.244v-1.576h17.55v1.576c-6.225 0-7.198 1.2-7.198 8.7v18c0 11.778-8.102 18.002-18.077 18.002-9.9 0-18.002-6.224-18.002-18v-18c0-7.502-.898-8.702-7.124-8.702v-1.576h20.252v1.576c-6.226 0-7.127 1.2-7.127 8.7V75.32c0 9.75 5.626 14.25 13.128 14.25 7.875 0 13.8-4.5 13.8-14.25V56.945c0-7.5-.975-8.7-7.2-8.7zM223.734 59.345c0-5.4-3-9.9-9.526-9.9h-6.6v19.8h6.6c6.526 0 9.526-4.425 9.526-9.9zM236.78 91.67h-10.796l-14.85-19.725h-3.526v9.376c0 7.5.9 8.777 7.126 8.777v1.574h-20.25v-1.573c6.224 0 7.124-1.276 7.124-8.776V56.946c0-7.5-.9-8.7-7.125-8.7v-1.577h19.8c10.427 0 16.126 5.7 16.126 12.677 0 6.524-4.876 11.7-13.35 12.6l7.35 8.626c3.913 4.644 8.294 8.113 12.368 9.218l.002 1.883zM343.352 81.32c0 7.5.9 8.777 7.125 8.777v1.574h-20.252v-1.573c6.226 0 7.125-1.276 7.125-8.776v-7.274L324.9 54.77c-3.225-4.95-5.55-6.526-10.877-6.526v-1.576H335.4v1.576c-6.3 0-6.3 2.25-4.05 5.7l10.8 16.5 10.952-16.5c2.625-4.05 2.25-5.7-4.05-5.7v-1.576h17.552v1.576c-6.3 0-7.877 2.1-10.877 6.525l-12.375 18.75v7.8z" fill="#FFF"/><path d="M300.533 55.298l-7.8 18.074h15.676l-7.877-18.074zm-12.6 29.176c-1.8 4.05-.375 5.7 5.85 5.7v1.577h-17.55v-1.575c6.3 0 6.674-1.276 9-6.526l16.5-38.178h.975l16.576 38.177c2.325 5.25 2.7 6.525 8.926 6.525v1.576h-20.775v-1.575c6.224 0 7.648-1.576 5.85-5.7l-3.6-8.326h-18.153l-3.6 8.324z" fill="#FFF"/><path d="M94.547 125.887c-2.395 0-4.447-.542-6.186-1.37l.572-3.448c1.653.968 3.705 1.738 5.672 1.738 1.74 0 2.936-.827 2.936-2.394 0-1.454-.685-2.053-3.535-3.278-3.82-1.568-5.36-2.823-5.36-5.872 0-3.478 2.68-5.5 6.358-5.5 2.223 0 3.762.455 5.187 1.196l-.57 3.42c-1.425-.94-3.106-1.54-4.645-1.54-1.882 0-2.708.913-2.708 2.11 0 1.255.627 1.853 3.363 2.993 4.047 1.654 5.53 3.05 5.53 6.1 0 3.848-2.822 5.844-6.613 5.844zM113.758 109.268v16.39h-3.79v-16.39h-5.844v-3.277h15.278l.54 3.278h-6.184zM129.173 110.01l-2.68 7.582h5.36l-2.68-7.582zm5.615 15.847l-1.88-5.187h-7.44l-1.796 4.988h-3.734l7.382-19.753h4.02l7.21 19.27-3.762.682zM148.527 109.268v16.39h-3.79v-16.39h-5.844v-3.277h15.277l.542 3.278h-6.185zM158.757 125.658V105.99h11.43v3.194h-7.696v4.617h5.93l.513 3.25h-6.442v5.416h7.982v3.192h-11.715zM190.02 126c-4.758 0-7.865-2.82-7.865-7.952V105.99h3.762v11.86c0 2.99 1.368 4.873 4.133 4.873 2.793 0 4.19-1.768 4.19-4.79v-11.942h3.79v11.972c0 5.217-3.248 8.038-8.01 8.038zM216.1 125.658l-9.264-13.54v13.54h-3.506V105.99h3.563l8.836 12.884V105.99h3.504v19.668H216.1zM224.904 105.99h3.79v19.668h-3.79V105.99zM243.8 125.744h-3.705l-7.24-19.268 3.99-.685 5.245 15.08 5.16-14.88h3.932l-7.382 19.754zM255.228 125.658V105.99h11.43v3.194h-7.697v4.617h5.93l.513 3.25h-6.442v5.416h7.982v3.192h-11.714zM277.173 109.012h-2.08v6.243h1.91c2.336 0 3.79-1.112 3.79-3.164 0-1.966-1.254-3.078-3.62-3.078zm8.637 16.133l-3.85.712-5.13-7.724h-1.71v7.525h-3.762V105.99h6.1c4.39 0 7.04 2.08 7.04 5.9 0 2.85-1.51 4.647-3.934 5.53l5.246 7.725zM294.985 125.887c-2.394 0-4.446-.542-6.185-1.37l.57-3.448c1.653.968 3.705 1.738 5.672 1.738 1.74 0 2.937-.827 2.937-2.394 0-1.454-.686-2.053-3.537-3.278-3.82-1.568-5.358-2.823-5.358-5.872 0-3.478 2.68-5.5 6.356-5.5 2.225 0 3.764.455 5.19 1.196l-.57 3.42c-1.426-.94-3.108-1.54-4.647-1.54-1.882 0-2.708.913-2.708 2.11 0 1.255.627 1.853 3.363 2.993 4.048 1.654 5.53 3.05 5.53 6.1 0 3.848-2.822 5.844-6.613 5.844zM306.328 105.99h3.79v19.668h-3.79V105.99zM324.142 109.268v16.39h-3.79v-16.39h-5.845v-3.277h15.278l.54 3.278h-6.183zM343.406 118.133v7.525h-3.79v-7.496l-6.87-11.744 3.934-.627 4.988 8.894 4.816-8.693h4.048l-7.126 12.143z" fill="#E7AE26"/></svg>
<svg width="24" height="24" viewBox="0 0 24 24" id="reply-grey-24" y="5262"><path d="M10 9V5l-7 7 7 7v-4.1c5 0 8.5 1.6 11 5.1-1-5-4-10-11-11z" fill="#797979"/></svg>
<svg width="48" height="48" viewBox="0 0 48 48" id="reply-grey-48" y="5286"><path d="M20 18v-8L6 24l14 14v-8.2c10 0 17 3.2 22 10.2-2-10-8-20-22-22z" fill="#797979"/></svg>
<svg width="24" height="24" viewBox="0 0 24 24" id="reply-msu-blue-24" y="5334"><path d="M10 9V5l-7 7 7 7v-4.1c5 0 8.5 1.6 11 5.1-1-5-4-10-11-11z" fill="#5381ac"/></svg>
<svg width="48" height="48" viewBox="0 0 48 48" id="reply-msu-blue-48" y="5358"><path d="M20 18v-8L6 24l14 14v-8.2c10 0 17 3.2 22 10.2-2-10-8-20-22-22z" fill="#5381ac"/></svg>
<svg width="24" height="24" viewBox="0 0 24 24" id="reply-msu-gold-24" y="5406"><path d="M10 9V5l-7 7 7 7v-4.1c5 0 8.5 1.6 11 5.1-1-5-4-10-11-11z" fill="#ecac00"/></svg>
<svg width="48" height="48" viewBox="0 0 48 48" id="reply-msu-gold-48" y="5430"><path d="M20 18v-8L6 24l14 14v-8.2c10 0 17 3.2 22 10.2-2-10-8-20-22-22z" fill="#ecac00"/></svg>
<svg width="24" height="24" viewBox="0 0 24 24" id="reply-msu-navy-24" y="5478"><path d="M10 9V5l-7 7 7 7v-4.1c5 0 8.5 1.6 11 5.1-1-5-4-10-11-11z" fill="#142C43"/></svg>
<svg width="48" height="48" viewBox="0 0 48 48" id="reply-msu-navy-48" y="5502"><path d="M20 18v-8L6 24l14 14v-8.2c10 0 17 3.2 22 10.2-2-10-8-20-22-22z" fill="#142C43"/></svg>
<svg width="24" height="24" viewBox="0 0 24 24" id="reply-red-24" y="5550"><path d="M10 9V5l-7 7 7 7v-4.1c5 0 8.5 1.6 11 5.1-1-5-4-10-11-11z" fill="#fa5e5b"/></svg>
<svg width="48" height="48" viewBox="0 0 48 48" id="reply-red-48" y="5574"><path d="M20 18v-8L6 24l14 14v-8.2c10 0 17 3.2 22 10.2-2-10-8-20-22-22z" fill="#fa5e5b"/></svg>
<svg width="24" height="24" viewBox="0 0 24 24" id="reply-white-24" y="5622"><path d="M10 9V5l-7 7 7 7v-4.1c5 0 8.5 1.6 11 5.1-1-5-4-10-11-11z" fill="#fff"/></svg>
<svg width="48" height="48" viewBox="0 0 48 48" id="reply-white-48" y="5646"><path d="M20 18v-8L6 24l14 14v-8.2c10 0 17 3.2 22 10.2-2-10-8-20-22-22z" fill="#fff"/></svg>
<svg width="24" height="24" viewBox="0 0 24 24" id="reply-yellow-24" y="5694"><path d="M10 9V5l-7 7 7 7v-4.1c5 0 8.5 1.6 11 5.1-1-5-4-10-11-11z" fill="#f4e565"/></svg>
<svg width="48" height="48" viewBox="0 0 48 48" id="reply-yellow-48" y="5718"><path d="M20 18v-8L6 24l14 14v-8.2c10 0 17 3.2 22 10.2-2-10-8-20-22-22z" fill="#f4e565"/></svg>
<svg width="24" height="24" viewBox="0 0 24 24" id="search-grey-24" y="5766"><path d="M15.5 14h-.79l-.28-.27C15.41 12.59 16 11.11 16 9.5 16 5.91 13.09 3 9.5 3S3 5.91 3 9.5 5.91 16 9.5 16c1.61 0 3.09-.59 4.23-1.57l.27.28v.79l5 4.99L20.49 19l-4.99-5zm-6 0C7.01 14 5 11.99 5 9.5S7.01 5 9.5 5 14 7.01 14 9.5 11.99 14 9.5 14z" fill="#797979"/></svg>
<svg width="48" height="48" viewBox="0 0 48 48" id="search-grey-48" y="5790"><path d="M31 28h-1.59l-.55-.55C30.82 25.18 32 22.23 32 19c0-7.18-5.82-13-13-13S6 11.82 6 19s5.82 13 13 13c3.23 0 6.18-1.18 8.45-3.13l.55.55V31l10 9.98L40.98 38 31 28zm-12 0c-4.97 0-9-4.03-9-9s4.03-9 9-9 9 4.03 9 9-4.03 9-9 9z" fill="#797979"/></svg>
<svg width="24" height="24" viewBox="0 0 24 24" id="search-msu-blue-24" y="5838"><path d="M15.5 14h-.79l-.28-.27C15.41 12.59 16 11.11 16 9.5 16 5.91 13.09 3 9.5 3S3 5.91 3 9.5 5.91 16 9.5 16c1.61 0 3.09-.59 4.23-1.57l.27.28v.79l5 4.99L20.49 19l-4.99-5zm-6 0C7.01 14 5 11.99 5 9.5S7.01 5 9.5 5 14 7.01 14 9.5 11.99 14 9.5 14z" fill="#5381ac"/></svg>
<svg width="48" height="48" viewBox="0 0 48 48" id="search-msu-blue-48" y="5862"><path d="M31 28h-1.59l-.55-.55C30.82 25.18 32 22.23 32 19c0-7.18-5.82-13-13-13S6 11.82 6 19s5.82 13 13 13c3.23 0 6.18-1.18 8.45-3.13l.55.55V31l10 9.98L40.98 38 31 28zm-12 0c-4.97 0-9-4.03-9-9s4.03-9 9-9 9 4.03 9 9-4.03 9-9 9z" fill="#5381ac"/></svg>
<svg width="24" height="24" viewBox="0 0 24 24" id="search-msu-gold-24" y="5910"><path d="M15.5 14h-.79l-.28-.27C15.41 12.59 16 11.11 16 9.5 16 5.91 13.09 3 9.5 3S3 5.91 3 9.5 5.91 16 9.5 16c1.61 0 3.09-.59 4.23-1.57l.27.28v.79l5 4.99L20.49 19l-4.99-5zm-6 0C7.01 14 5 11.99 5 9.5S7.01 5 9.5 5 14 7.01 14 9.5 11.99 14 9.5 14z" fill="#ecac00"/></svg>
<svg width="48" height="48" viewBox="0 0 48 48" id="search-msu-gold-48" y="5934"><path d="M31 28h-1.59l-.55-.55C30.82 25.18 32 22.23 32 19c0-7.18-5.82-13-13-13S6 11.82 6 19s5.82 13 13 13c3.23 0 6.18-1.18 8.45-3.13l.55.55V31l10 9.98L40.98 38 31 28zm-12 0c-4.97 0-9-4.03-9-9s4.03-9 9-9 9 4.03 9 9-4.03 9-9 9z" fill="#ecac00"/></svg>
<svg width="24" height="24" viewBox="0 0 24 24" id="search-msu-navy-24" y="5982"><path d="M15.5 14h-.79l-.28-.27C15.41 12.59 16 11.11 16 9.5 16 5.91 13.09 3 9.5 3S3 5.91 3 9.5 5.91 16 9.5 16c1.61 0 3.09-.59 4.23-1.57l.27.28v.79l5 4.99L20.49 19l-4.99-5zm-6 0C7.01 14 5 11.99 5 9.5S7.01 5 9.5 5 14 7.01 14 9.5 11.99 14 9.5 14z" fill="#142C43"/></svg>
<svg width="48" height="48" viewBox="0 0 48 48" id="search-msu-navy-48" y="6006"><path d="M31 28h-1.59l-.55-.55C30.82 25.18 32 22.23 32 19c0-7.18-5.82-13-13-13S6 11.82 6 19s5.82 13 13 13c3.23 0 6.18-1.18 8.45-3.13l.55.55V31l10 9.98L40.98 38 31 28zm-12 0c-4.97 0-9-4.03-9-9s4.03-9 9-9 9 4.03 9 9-4.03 9-9 9z" fill="#142C43"/></svg>
<svg width="24" height="24" viewBox="0 0 24 24" id="search-red-24" y="6054"><path d="M15.5 14h-.79l-.28-.27C15.41 12.59 16 11.11 16 9.5 16 5.91 13.09 3 9.5 3S3 5.91 3 9.5 5.91 16 9.5 16c1.61 0 3.09-.59 4.23-1.57l.27.28v.79l5 4.99L20.49 19l-4.99-5zm-6 0C7.01 14 5 11.99 5 9.5S7.01 5 9.5 5 14 7.01 14 9.5 11.99 14 9.5 14z" fill="#fa5e5b"/></svg>
<svg width="48" height="48" viewBox="0 0 48 48" id="search-red-48" y="6078"><path d="M31 28h-1.59l-.55-.55C30.82 25.18 32 22.23 32 19c0-7.18-5.82-13-13-13S6 11.82 6 19s5.82 13 13 13c3.23 0 6.18-1.18 8.45-3.13l.55.55V31l10 9.98L40.98 38 31 28zm-12 0c-4.97 0-9-4.03-9-9s4.03-9 9-9 9 4.03 9 9-4.03 9-9 9z" fill="#fa5e5b"/></svg>
<svg width="24" height="24" viewBox="0 0 24 24" id="search-white-24" y="6126"><path d="M15.5 14h-.79l-.28-.27C15.41 12.59 16 11.11 16 9.5 16 5.91 13.09 3 9.5 3S3 5.91 3 9.5 5.91 16 9.5 16c1.61 0 3.09-.59 4.23-1.57l.27.28v.79l5 4.99L20.49 19l-4.99-5zm-6 0C7.01 14 5 11.99 5 9.5S7.01 5 9.5 5 14 7.01 14 9.5 11.99 14 9.5 14z" fill="#fff"/></svg>
<svg width="48" height="48" viewBox="0 0 48 48" id="search-white-48" y="6150"><path d="M31 28h-1.59l-.55-.55C30.82 25.18 32 22.23 32 19c0-7.18-5.82-13-13-13S6 11.82 6 19s5.82 13 13 13c3.23 0 6.18-1.18 8.45-3.13l.55.55V31l10 9.98L40.98 38 31 28zm-12 0c-4.97 0-9-4.03-9-9s4.03-9 9-9 9 4.03 9 9-4.03 9-9 9z" fill="#fff"/></svg>
<svg width="24" height="24" viewBox="0 0 24 24" id="search-yellow-24" y="6198"><path d="M15.5 14h-.79l-.28-.27C15.41 12.59 16 11.11 16 9.5 16 5.91 13.09 3 9.5 3S3 5.91 3 9.5 5.91 16 9.5 16c1.61 0 3.09-.59 4.23-1.57l.27.28v.79l5 4.99L20.49 19l-4.99-5zm-6 0C7.01 14 5 11.99 5 9.5S7.01 5 9.5 5 14 7.01 14 9.5 11.99 14 9.5 14z" fill="#f4e565"/></svg>
<svg width="48" height="48" viewBox="0 0 48 48" id="search-yellow-48" y="6222"><path d="M31 28h-1.59l-.55-.55C30.82 25.18 32 22.23 32 19c0-7.18-5.82-13-13-13S6 11.82 6 19s5.82 13 13 13c3.23 0 6.18-1.18 8.45-3.13l.55.55V31l10 9.98L40.98 38 31 28zm-12 0c-4.97 0-9-4.03-9-9s4.03-9 9-9 9 4.03 9 9-4.03 9-9 9z" fill="#f4e565"/></svg>
<svg width="24" height="24" viewBox="0 0 24 24" id="sort-grey-24" y="6270"><path d="M3 18h6v-2H3v2zM3 6v2h18V6H3zm0 7h12v-2H3v2z" fill="#797979"/></svg>
<svg width="48" height="48" viewBox="0 0 48 48" id="sort-grey-48" y="6294"><path d="M6 36h12v-4H6v4zm0-24v4h36v-4H6zm0 14h24v-4H6v4z" fill="#797979"/></svg>
<svg width="24" height="24" viewBox="0 0 24 24" id="sort-msu-blue-24" y="6342"><path d="M3 18h6v-2H3v2zM3 6v2h18V6H3zm0 7h12v-2H3v2z" fill="#5381ac"/></svg>
<svg width="48" height="48" viewBox="0 0 48 48" id="sort-msu-blue-48" y="6366"><path d="M6 36h12v-4H6v4zm0-24v4h36v-4H6zm0 14h24v-4H6v4z" fill="#5381ac"/></svg>
<svg width="24" height="24" viewBox="0 0 24 24" id="sort-msu-gold-24" y="6414"><path d="M3 18h6v-2H3v2zM3 6v2h18V6H3zm0 7h12v-2H3v2z" fill="#ecac00"/></svg>
<svg width="48" height="48" viewBox="0 0 48 48" id="sort-msu-gold-48" y="6438"><path d="M6 36h12v-4H6v4zm0-24v4h36v-4H6zm0 14h24v-4H6v4z" fill="#ecac00"/></svg>
<svg width="24" height="24" viewBox="0 0 24 24" id="sort-msu-navy-24" y="6486"><path d="M3 18h6v-2H3v2zM3 6v2h18V6H3zm0 7h12v-2H3v2z" fill="#142C43"/></svg>
<svg width="48" height="48" viewBox="0 0 48 48" id="sort-msu-navy-48" y="6510"><path d="M6 36h12v-4H6v4zm0-24v4h36v-4H6zm0 14h24v-4H6v4z" fill="#142C43"/></svg>
<svg width="24" height="24" viewBox="0 0 24 24" id="sort-red-24" y="6558"><path d="M3 18h6v-2H3v2zM3 6v2h18V6H3zm0 7h12v-2H3v2z" fill="#fa5e5b"/></svg>
<svg width="48" height="48" viewBox="0 0 48 48" id="sort-red-48" y="6582"><path d="M6 36h12v-4H6v4zm0-24v4h36v-4H6zm0 14h24v-4H6v4z" fill="#fa5e5b"/></svg>
<svg width="24" height="24" viewBox="0 0 24 24" id="sort-white-24" y="6630"><path d="M3 18h6v-2H3v2zM3 6v2h18V6H3zm0 7h12v-2H3v2z" fill="#fff"/></svg>
<svg width="48" height="48" viewBox="0 0 48 48" id="sort-white-48" y="6654"><path d="M6 36h12v-4H6v4zm0-24v4h36v-4H6zm0 14h24v-4H6v4z" fill="#fff"/></svg>
<svg width="24" height="24" viewBox="0 0 24 24" id="sort-yellow-24" y="6702"><path d="M3 18h6v-2H3v2zM3 6v2h18V6H3zm0 7h12v-2H3v2z" fill="#f4e565"/></svg>
<svg width="48" height="48" viewBox="0 0 48 48" id="sort-yellow-48" y="6726"><path d="M6 36h12v-4H6v4zm0-24v4h36v-4H6zm0 14h24v-4H6v4z" fill="#f4e565"/></svg>
<svg width="24" height="24" viewBox="0 0 24 24" id="twitter-dark-large" y="6774"><path fill="#444" d="M24 4.557c-.883.392-1.832.656-2.828.775 1.017-.61 1.797-1.574 2.165-2.724-.95.564-2.005.974-3.127 1.195-.898-.957-2.178-1.555-3.594-1.555-2.72 0-4.924 2.204-4.924 4.924 0 .386.044.762.127 1.122C7.726 8.09 4.1 6.128 1.67 3.15c-.424.726-.667 1.572-.667 2.474 0 1.708.87 3.215 2.19 4.098-.807-.026-1.566-.247-2.23-.616v.062c0 2.386 1.697 4.376 3.95 4.828-.413.112-.848.173-1.297.173-.317 0-.626-.032-.926-.09.627 1.957 2.445 3.38 4.6 3.42-1.685 1.32-3.808 2.108-6.115 2.108-.397 0-.79-.023-1.175-.07 2.18 1.398 4.767 2.213 7.548 2.213 9.057 0 14.01-7.502 14.01-14.01 0-.212-.006-.425-.015-.636.962-.694 1.797-1.56 2.457-2.55z"/></svg>
<svg width="24" height="24" viewBox="0 0 24 24" id="twitter-dark-small" y="6798"><path fill="#444" d="M24 4.557c-.883.392-1.832.656-2.828.775 1.017-.61 1.797-1.574 2.165-2.724-.95.564-2.005.974-3.127 1.195-.898-.957-2.178-1.555-3.594-1.555-2.72 0-4.924 2.204-4.924 4.924 0 .386.044.762.127 1.122C7.726 8.09 4.1 6.128 1.67 3.15c-.424.726-.667 1.572-.667 2.474 0 1.708.87 3.215 2.19 4.098-.807-.026-1.566-.247-2.23-.616v.062c0 2.386 1.697 4.376 3.95 4.828-.413.112-.848.173-1.297.173-.317 0-.626-.032-.926-.09.627 1.957 2.445 3.38 4.6 3.42-1.685 1.32-3.808 2.108-6.115 2.108-.397 0-.79-.023-1.175-.07 2.18 1.398 4.767 2.213 7.548 2.213 9.057 0 14.01-7.502 14.01-14.01 0-.212-.006-.425-.015-.636.962-.694 1.797-1.56 2.457-2.55z"/></svg>
<svg width="24" height="24" viewBox="0 0 24 24" id="twitter-white-small" y="6822"><path fill="#fff" d="M24 4.557c-.883.392-1.832.656-2.828.775 1.017-.61 1.797-1.574 2.165-2.724-.95.564-2.005.974-3.127 1.195-.898-.957-2.178-1.555-3.594-1.555-2.72 0-4.924 2.204-4.924 4.924 0 .386.044.762.127 1.122C7.726 8.09 4.1 6.128 1.67 3.15c-.424.726-.667 1.572-.667 2.474 0 1.708.87 3.215 2.19 4.098-.807-.026-1.566-.247-2.23-.616v.062c0 2.386 1.697 4.376 3.95 4.828-.413.112-.848.173-1.297.173-.317 0-.626-.032-.926-.09.627 1.957 2.445 3.38 4.6 3.42-1.685 1.32-3.808 2.108-6.115 2.108-.397 0-.79-.023-1.175-.07 2.18 1.398 4.767 2.213 7.548 2.213 9.057 0 14.01-7.502 14.01-14.01 0-.212-.006-.425-.015-.636.962-.694 1.797-1.56 2.457-2.55z"/></svg>
</svg>