<svg xmlns="http://www.w3.org/2000/svg" xmlns:xlink="http://www.w3.org/1999/xlink" width="48" height="576" viewBox="0 0 48 576"><svg width="24" height="24" viewBox="0 0 24 24" id="business-grey-24" y="0"><path d="M12 7V3H2v18h20V7H12zM6 19H4v-2h2v2zm0-4H4v-2h2v2zm0-4H4V9h2v2zm0-4H4V5h2v2zm4 12H8v-2h2v2zm0-4H8v-2h2v2zm0-4H8V9h2v2zm0-4H8V5h2v2zm10 12h-8v-2h2v-2h-2v-2h2v-2h-2V9h8v10zm-2-8h-2v2h2v-2zm0 4h-2v2h2v-2z" fill="#797979"/></svg>
<svg width="48" height="48" viewBox="0 0 48 48" id="business-grey-48" y="24"><path d="M24 14V6H4v36h40V14H24zM12 38H8v-4h4v4zm0-8H8v-4h4v4zm0-8H8v-4h4v4zm0-8H8v-4h4v4zm8 24h-4v-4h4v4zm0-8h-4v-4h4v4zm0-8h-4v-4h4v4zm0-8h-4v-4h4v4zm20 24H24v-4h4v-4h-4v-4h4v-4h-4v-4h16v20zm-4-16h-4v4h4v-4zm0 8h-4v4h4v-4z" fill="#797979"/></svg>
<svg width="24" height="24" viewBox="0 0 24 24" id="business-white-24" y="72"><path d="M12 7V3H2v18h20V7H12zM6 19H4v-2h2v2zm0-4H4v-2h2v2zm0-4H4V9h2v2zm0-4H4V5h2v2zm4 12H8v-2h2v2zm0-4H8v-2h2v2zm0-4H8V9h2v2zm0-4H8V5h2v2zm10 12h-8v-2h2v-2h-2v-2h2v-2h-2V9h8v10zm-2-8h-2v2h2v-2zm0 4h-2v2h2v-2z" fill="#fff"/></svg>
<svg width="48" height="48" viewBox="0 0 48 48" id="business-white-48" y="96"><path d="M24 14V6H4v36h40V14H24zM12 38H8v-4h4v4zm0-8H8v-4h4v4zm0-8H8v-4h4v4zm0-8H8v-4h4v4zm8 24h-4v-4h4v4zm0-8h-4v-4h4v4zm0-8h-4v-4h4v4zm0-8h-4v-4h4v4zm20 24H24v-4h4v-4h-4v-4h4v-4h-4v-4h16v20zm-4-16h-4v4h4v-4zm0 8h-4v4h4v-4z" fill="#fff"/></svg>
<svg width="24" height="24" viewBox="0 0 24 24" id="mail-grey-24" y="144"><path d="M20 4H4c-1.1 0-1.99.9-1.99 2L2 18c0 1.1.9 2 2 2h16c1.1 0 2-.9 2-2V6c0-1.1-.9-2-2-2zm0 4l-8 5-8-5V6l8 5 8-5v2z" fill="#797979"/></svg>
<svg width="48" height="48" viewBox="0 0 48 48" id="mail-grey-48" y="168"><path d="M40 8H8c-2.21 0-3.98 1.79-3.98 4L4 36c0 2.21 1.79 4 4 4h32c2.21 0 4-1.79 4-4V12c0-2.21-1.79-4-4-4zm0 8L24 26 8 16v-4l16 10 16-10v4z" fill="#797979"/></svg>
<svg width="24" height="24" viewBox="0 0 24 24" id="mail-white-24" y="216"><path d="M20 4H4c-1.1 0-1.99.9-1.99 2L2 18c0 1.1.9 2 2 2h16c1.1 0 2-.9 2-2V6c0-1.1-.9-2-2-2zm0 4l-8 5-8-5V6l8 5 8-5v2z" fill="#fff"/></svg>
<svg width="48" height="48" viewBox="0 0 48 48" id="mail-white-48" y="240"><path d="M40 8H8c-2.21 0-3.98 1.79-3.98 4L4 36c0 2.21 1.79 4 4 4h32c2.21 0 4-1.79 4-4V12c0-2.21-1.79-4-4-4zm0 8L24 26 8 16v-4l16 10 16-10v4z" fill="#fff"/></svg>
<svg width="24" height="24" viewBox="0 0 24 24" id="menu-grey-24" y="288"><path d="M3 18h18v-2H3v2zm0-5h18v-2H3v2zm0-7v2h18V6H3z" fill="#797979"/></svg>
<svg width="48" height="48" viewBox="0 0 48 48" id="menu-grey-48" y="312"><path d="M6 36h36v-4H6v4zm0-10h36v-4H6v4zm0-14v4h36v-4H6z" fill="#797979"/></svg>
<svg width="24" height="24" viewBox="0 0 24 24" id="menu-white-24" y="360"><path d="M3 18h18v-2H3v2zm0-5h18v-2H3v2zm0-7v2h18V6H3z" fill="#fff"/></svg>
<svg width="48" height="48" viewBox="0 0 48 48" id="menu-white-48" y="384"><path d="M6 36h36v-4H6v4zm0-10h36v-4H6v4zm0-14v4h36v-4H6z" fill="#fff"/></svg>
<svg width="24" height="24" viewBox="0 0 24 24" id="person-grey-24" y="432"><path d="M12 12c2.21 0 4-1.79 4-4s-1.79-4-4-4-4 1.79-4 4 1.79 4 4 4zm0 2c-2.67 0-8 1.34-8 4v2h16v-2c0-2.66-5.33-4-8-4z" fill="#797979"/></svg>
<svg width="48" height="48" viewBox="0 0 48 48" id="person-grey-48" y="456"><path d="M24 24c4.42 0 8-3.59 8-8 0-4.42-3.58-8-8-8s-8 3.58-8 8c0 4.41 3.58 8 8 8zm0 4c-5.33 0-16 2.67-16 8v4h32v-4c0-5.33-10.67-8-16-8z" fill="#797979"/></svg>
<svg width="24" height="24" viewBox="0 0 24 24" id="person-white-24" y="504"><path d="M12 12c2.21 0 4-1.79 4-4s-1.79-4-4-4-4 1.79-4 4 1.79 4 4 4zm0 2c-2.67 0-8 1.34-8 4v2h16v-2c0-2.66-5.33-4-8-4z" fill="#fff"/></svg>
<svg width="48" height="48" viewBox="0 0 48 48" id="person-white-48" y="528"><path d="M24 24c4.42 0 8-3.59 8-8 0-4.42-3.58-8-8-8s-8 3.58-8 8c0 4.41 3.58 8 8 8zm0 4c-5.33 0-16 2.67-16 8v4h32v-4c0-5.33-10.67-8-16-8z" fill="#fff"/></svg>
</svg>